<svg xmlns="http://www.w3.org/2000/svg" width="313" height="247" viewBox="0 0 313 247">
  <g id="Group_2" data-name="Group 2" transform="translate(0 -0.876)">
    <path id="Path_1" data-name="Path 1" d="M281.371,103.35c-19.8-.685-38.669-7.044-56.68-14S188.84,74.678,169.51,70.991c-12.433-2.371-26.653-2.706-36.668,3.924-9.642,6.393-12.757,17.4-14.431,27.619-1.261,7.689-2,15.781,1.453,22.98,2.4,5,6.652,9.2,9.593,14,10.242,16.657,3,37.2-8.094,53.464-5.2,7.632-11.245,14.916-15.26,23.032s-5.875,17.428-2.362,25.714c3.485,8.219,11.787,14.38,20.777,18.718,18.265,8.813,39.78,11.333,60.774,12.761,46.46,3.163,93.165,1.793,139.747.423,17.24-.508,34.553-1.023,51.512-3.674,9.419-1.473,19.14-3.808,25.979-9.452,8.678-7.163,10.829-19.294,5.015-28.274-9.758-15.065-36.72-18.807-43.55-34.977-3.752-8.9.1-18.81,5.557-27.065,11.7-17.7,31.313-33.239,32.347-53.476.71-13.9-8.721-27.82-23.3-34.4-15.279-6.919-36.472-6.043-47.739,5.37C319.254,99.441,298.856,103.953,281.371,103.35Z" transform="translate(-97.803 -61.45)" fill="#56c596" opacity="0.1"/>
    <path id="Path_2" data-name="Path 2" d="M174.618,487.8,69.6,487.292,59.16,462.816l36.9-2.679L89.629,433.3l72.983-9.46-69.887-24.3L98.9,398.08l112.378,18.333-6.189,41.88-8.846,23.016Z" transform="translate(-41.008 -277.179)" fill="#56c596"/>
    <path id="Path_3" data-name="Path 3" d="M187,698.614s6.444-1.031,10.31,3.522c0,0-2.835,2.234-8.935-.859Z" transform="translate(-156.801 -499.14)" fill="#56c596"/>
    <path id="Path_4" data-name="Path 4" d="M178.82,698.51s-4.112,5.06-2.086,10.693c0,0,3.351-1.341,3.716-8.171Z" transform="translate(-149.296 -499.138)" fill="#56c596"/>
    <path id="Path_5" data-name="Path 5" d="M172.76,667.7s2.577-4.728,12.887,1.89c0,0-1.375,3.179-5.928,2.921S173.963,670.195,172.76,667.7Z" transform="translate(-146.931 -476.298)" fill="#56c596"/>
    <path id="Path_6" data-name="Path 6" d="M157.337,670.278s-5.348-.614-5.867,11.629c0,0,3.391.7,5.8-3.17S158.69,672.693,157.337,670.278Z" transform="translate(-132.173 -479.251)" fill="#56c596"/>
    <path id="Path_7" data-name="Path 7" d="M160.44,628.216s3.007-8.334,13.918-2.406c0,0-2.491,7.646-12.8,5.241Z" transform="translate(-138.391 -446.837)" fill="#56c596"/>
    <path id="Path_8" data-name="Path 8" d="M149.52,588.98s5.67-8.419,15.722-.614c0,0-3.522,7.9-14.863,3.608Z" transform="translate(-130.822 -419.979)" fill="#56c596"/>
    <path id="Path_9" data-name="Path 9" d="M145.6,551.453s6.615-7.735,16.569,0c0,0-6.272,6.787-16.569,1.976Z" transform="translate(-128.104 -394.227)" fill="#56c596"/>
    <path id="Path_10" data-name="Path 10" d="M142.24,513.286s6.7-8.076,16.238-.43c0,0-7.56,7.131-16.238,2.32Z" transform="translate(-125.775 -367.496)" fill="#56c596"/>
    <path id="Path_11" data-name="Path 11" d="M144.2,475.268s7.057-10.4,15.98-3.351c0,0-7.56,8.935-15.98,5.327Z" transform="translate(-127.134 -339.623)" fill="#56c596"/>
    <path id="Path_12" data-name="Path 12" d="M149.52,437.279s7.474-10.31,16.152-2.406c0,0-8.849,8.935-16.152,4.3Z" transform="translate(-130.822 -313.497)" fill="#56c596"/>
    <path id="Path_13" data-name="Path 13" d="M156.767,399.438s8.849-9.69,16.569-5.83c0,0-9.22,10.291-16.956,8.4Z" transform="translate(-135.577 -286.251)" fill="#56c596"/>
    <path id="Path_14" data-name="Path 14" d="M166.084,361.993s10.211-11.868,16.152-7.9c0,0-7.524,9.205-16.876,10.126Z" transform="translate(-141.801 -258.847)" fill="#56c596"/>
    <path id="Path_15" data-name="Path 15" d="M179.56,326.107s8.938-9.69,15.467-7.284c0,0-7.646,10.052-16.667,10.31Z" transform="translate(-150.813 -234.623)" fill="#56c596"/>
    <path id="Path_16" data-name="Path 16" d="M194.47,289.941s9.88-9.279,14.176-7.646c0,0-7.131,10.31-14.605,9.708Z" transform="translate(-161.681 -209.357)" fill="#56c596"/>
    <path id="Path_17" data-name="Path 17" d="M208.32,251.4s8.505-11.086,13.148-10.227c0,0-5.158,9.883-13.148,11.353Z" transform="translate(-171.58 -180.87)" fill="#56c596"/>
    <path id="Path_18" data-name="Path 18" d="M221.6,210.908s7.517-8.5,11.58-8.478c0,0-5.934,11.353-11.89,11.249Z" transform="translate(-180.57 -153.965)" fill="#56c596"/>
    <path id="Path_19" data-name="Path 19" d="M228.494,160.418l7.263-17.7s.362,16-8.186,20.981Z" transform="translate(-184.923 -112.246)" fill="#56c596"/>
    <path id="Path_20" data-name="Path 20" d="M240.079,100.683s1.2-14.78.43-15.983c0,0,5.192,12.289-.479,22.512Z" transform="translate(-193.56 -72.029)" fill="#56c596"/>
    <path id="Path_21" data-name="Path 21" d="M131.5,635.687s-7.53-4.667-12.405,6.75c0,0,6.7,4.449,13.292-3.838Z" transform="translate(-109.729 -454.532)" fill="#56c596"/>
    <path id="Path_22" data-name="Path 22" d="M117.745,594.678s-9.236-4.213-13.715,7.708c0,0,7.134,4.909,14.556-4.695Z" transform="translate(-99.289 -426.178)" fill="#56c596"/>
    <path id="Path_23" data-name="Path 23" d="M106.769,553.763s-6.615-7.735-16.569,0c0,0,6.272,6.787,16.569,1.976Z" transform="translate(-89.703 -395.833)" fill="#56c596"/>
    <path id="Path_24" data-name="Path 24" d="M104.818,513.286s-6.7-8.076-16.238-.43c0,0,7.56,7.131,16.238,2.32Z" transform="translate(-88.58 -367.496)" fill="#56c596"/>
    <path id="Path_25" data-name="Path 25" d="M110.5,471.511s-4.7-11.644-14.918-6.637c0,0,5.523,10.325,14.5,8.57Z" transform="translate(-93.432 -335.564)" fill="#56c596"/>
    <path id="Path_26" data-name="Path 26" d="M117.485,431.622s-4.673-11.847-15.035-6.355c0,0,6.345,10.859,14.575,8.183Z" transform="translate(-98.194 -307.886)" fill="#56c596"/>
    <path id="Path_27" data-name="Path 27" d="M137.322,382.881s-1.841-12.988-10.432-14.151c0,0,1.823,13.7,9.276,16.492Z" transform="translate(-115.135 -269.606)" fill="#56c596"/>
    <path id="Path_28" data-name="Path 28" d="M150.761,345.175s-.718-15.648-7.821-16.195c0,0,.239,11.878,7.02,18.41Z" transform="translate(-126.261 -241.972)" fill="#56c596"/>
    <path id="Path_29" data-name="Path 29" d="M164.568,309.012s-2.117-13.013-8.9-14.6c0,0,.841,12.6,8.226,17.8Z" transform="translate(-135.085 -217.932)" fill="#56c596"/>
    <path id="Path_30" data-name="Path 30" d="M187.21,272.877S187.14,259.321,183,257.33c0,0-2.568,12.273,3.013,17.278Z" transform="translate(-153.618 -192.148)" fill="#56c596"/>
    <path id="Path_31" data-name="Path 31" d="M197.966,238.135s-.58-13.958-4.869-15.925c0,0-1.467,11.046,4.228,16.839Z" transform="translate(-160.91 -167.727)" fill="#56c596"/>
    <path id="Path_32" data-name="Path 32" d="M215.017,202.026s-.025-11.353-3.087-14.016c0,0-3.044,12.436,1.488,16.3Z" transform="translate(-173.389 -143.946)" fill="#56c596"/>
    <path id="Path_33" data-name="Path 33" d="M220.108,155.895,217.128,137s-4.047,15.483,3.12,22.307Z" transform="translate(-176.896 -108.281)" fill="#56c596"/>
    <path id="Path_34" data-name="Path 34" d="M214.374,105.484s-7.646-12.7-7.49-14.114c0,0,.813,13.313,10.432,19.944Z" transform="translate(-170.583 -76.652)" fill="#56c596"/>
    <path id="Path_35" data-name="Path 35" d="M210.541,81.082s-7.217-18.042-10.481-19.5c0,0,10.31,5.241,11.083,18.987Z" transform="translate(-165.854 -56.003)" fill="#56c596"/>
    <path id="Path_36" data-name="Path 36" d="M220.054,157.6l-.494-.15c6.091-19.861,7.609-32.524,4.28-35.7l.353-.374C227.725,124.731,226.292,137.256,220.054,157.6Z" transform="translate(-179.371 -97.454)" fill="#205072"/>
    <path id="Path_37" data-name="Path 37" d="M164.86,282.665l-.73-.261c.647-1.82,1.344-3.667,2.074-5.486,6.358-15.845,11.77-30.585,15.24-41.9l.635-.307c-3.476,11.337-8.794,26.642-15.158,42.509C166.195,279,165.5,280.842,164.86,282.665Z" transform="translate(-140.949 -176.482)" fill="#205072"/>
    <path id="Path_38" data-name="Path 38" d="M163.394,496.423c-.1-.107-9.969-11.224-16.851-30.2a111.743,111.743,0,0,1-6.649-34.6c-.473-14.768,2.627-31.257,7.935-46.237l.577.675c-11.917,33.62-7.183,62.428-.9,79.777,6.809,18.806,16.569,29.8,16.664,29.91Z" transform="translate(-124.116 -282.087)" fill="#205072"/>
    <path id="Path_39" data-name="Path 39" d="M573.024,670.36s-6.956,8.49-1.433,21.325l-55.537,24.086-5.33,1.117-2.455-10.739,1.642-13.553v-7.407Z" transform="translate(-379.93 -479.625)" fill="#d5d6db"/>
    <path id="Path_40" data-name="Path 40" d="M59.16,577.4l76.868-14.013,101.853,16.225-63.263,22.776Z" transform="translate(-41.008 -391.861)" fill="#56c596"/>
    <path id="Path_41" data-name="Path 41" d="M59.16,577.4l76.868-14.013,101.853,16.225-63.263,22.776Z" transform="translate(-41.008 -391.861)" fill="#56c596"/>
    <path id="Path_42" data-name="Path 42" d="M141.2,652.47s-7.189,13.62,1.1,26.2l113.989,24.7s-7.076-10.85.365-25.909Z" transform="translate(-123.05 -467.224)" fill="#56c596"/>
    <path id="Path_43" data-name="Path 43" d="M141.2,652.47s-7.189,13.62,1.1,26.2l113.989,24.7s-7.076-10.85.365-25.909Z" transform="translate(-123.05 -467.224)" opacity="0.1"/>
    <path id="Path_44" data-name="Path 44" d="M154.685,667.86s-4.109,9.966,0,16.416" transform="translate(-133.136 -477.6)" opacity="0.1"/>
    <path id="Path_45" data-name="Path 45" d="M265.3,757.015l63.637-27.155s3.559.767,1.258,3.375-63.668,26.388-63.668,26.388L151.31,732.315Z" transform="translate(-132.062 -520.869)" fill="#56c596"/>
    <path id="Path_46" data-name="Path 46" d="M265.3,757.015l63.637-27.155s3.559.767,1.258,3.375-63.668,26.388-63.668,26.388L151.31,732.315Z" transform="translate(-132.062 -520.869)" opacity="0.1"/>
    <path id="Path_47" data-name="Path 47" d="M499.649,742.86s-6.137,7.364,0,18.41" transform="translate(-371.968 -529.88)" opacity="0.1"/>
    <rect id="Rectangle_1" data-name="Rectangle 1" width="29.017" height="0.307" transform="translate(129.822 222.039) rotate(-18.45)" opacity="0.1"/>
    <rect id="Rectangle_2" data-name="Rectangle 2" width="35.356" height="0.307" transform="translate(129.804 224.509) rotate(-20.82)" opacity="0.1"/>
    <rect id="Rectangle_3" data-name="Rectangle 3" width="40.981" height="0.307" transform="translate(129.981 227.421) rotate(-22.26)" opacity="0.1"/>
    <rect id="Rectangle_4" data-name="Rectangle 4" width="47.173" height="0.307" transform="translate(130.415 229.988) rotate(-24.31)" opacity="0.1"/>
    <rect id="Rectangle_5" data-name="Rectangle 5" width="51.594" height="0.307" transform="matrix(0.916, -0.401, 0.401, 0.916, 130.748, 231.238)" opacity="0.1"/>
    <rect id="Rectangle_6" data-name="Rectangle 6" width="61.741" height="0.307" transform="translate(131.444 233.336) rotate(-23.36)" opacity="0.1"/>
    <path id="Path_48" data-name="Path 48" d="M152.23,588.293l54-11.353,32.9,6.29L194.88,597.5Z" transform="translate(-105.521 -401.174)" fill="#fff" opacity="0.3"/>
    <path id="Path_49" data-name="Path 49" d="M587.272,659.69s2.792,1.126,1.154,2.866S524,682.466,524,682.466Z" transform="translate(-390.851 -471.956)" fill="#56c596"/>
    <path id="Path_50" data-name="Path 50" d="M672.321,574.18s-6.953,8.487-1.43,21.325l-55.537,24.086-5.33,1.123-2.455-10.739,1.666-13.55v-7.416Z" transform="translate(-448.865 -412.632)" fill="#d5d6db"/>
    <path id="Path_51" data-name="Path 51" d="M158.46,481.22l76.865-14.01,101.856,16.225-63.263,22.776Z" transform="translate(-110.142 -324.961)" fill="#205072"/>
    <path id="Path_52" data-name="Path 52" d="M240.458,556.29s-7.192,13.62,1.092,26.2l113.989,24.7s-7.073-10.859.377-25.912Z" transform="translate(-191.849 -400.214)" fill="#205072"/>
    <path id="Path_53" data-name="Path 53" d="M240.458,556.29s-7.192,13.62,1.092,26.2l113.989,24.7s-7.073-10.859.377-25.912l-36.047-7.8Z" transform="translate(-191.849 -400.214)" opacity="0.1"/>
    <path id="Path_54" data-name="Path 54" d="M253.978,571.68s-4.105,9.963,0,16.416" transform="translate(-201.964 -410.723)" opacity="0.1"/>
    <path id="Path_55" data-name="Path 55" d="M364.589,660.835l63.64-27.155s3.556.767,1.255,3.375-63.668,26.388-63.668,26.388L250.6,636.135Z" transform="translate(-201.199 -453.911)" fill="#205072"/>
    <path id="Path_56" data-name="Path 56" d="M364.589,660.835l63.64-27.155s3.556.767,1.255,3.375-63.668,26.388-63.668,26.388L250.6,636.135Z" transform="translate(-201.199 -453.911)" opacity="0.1"/>
    <path id="Path_57" data-name="Path 57" d="M598.938,646.68s-6.137,7.364,0,18.41" transform="translate(-440.875 -462.884)" opacity="0.1"/>
    <rect id="Rectangle_7" data-name="Rectangle 7" width="29.017" height="0.307" transform="translate(160.2 192.907) rotate(-18.45)" opacity="0.1"/>
    <rect id="Rectangle_8" data-name="Rectangle 8" width="35.356" height="0.307" transform="translate(160.184 195.365) rotate(-20.82)" opacity="0.1"/>
    <rect id="Rectangle_9" data-name="Rectangle 9" width="40.981" height="0.307" transform="translate(160.355 198.256) rotate(-22.26)" opacity="0.1"/>
    <rect id="Rectangle_10" data-name="Rectangle 10" width="47.173" height="0.307" transform="translate(160.791 200.812) rotate(-24.31)" opacity="0.1"/>
    <rect id="Rectangle_11" data-name="Rectangle 11" width="51.594" height="0.307" transform="matrix(0.916, -0.401, 0.401, 0.916, 161.118, 202.051)" opacity="0.1"/>
    <rect id="Rectangle_12" data-name="Rectangle 12" width="61.741" height="0.307" transform="translate(161.813 204.139) rotate(-23.36)" opacity="0.1"/>
    <path id="Path_58" data-name="Path 58" d="M251.53,492.113l54-11.353,32.9,6.29L294.18,501.318Z" transform="translate(-174.639 -334.294)" fill="#fff" opacity="0.45"/>
    <path id="Path_59" data-name="Path 59" d="M686.593,563.51s2.789,1.126,1.154,2.863-64.417,19.91-64.417,19.91Z" transform="translate(-459.806 -405.074)" fill="#205072"/>
    <path id="Path_60" data-name="Path 60" d="M681.742,464.15s-6.956,15.24-1.433,28.075l-55.537,17.336-5.317,1.126L617,499.948l1.642-13.553v-7.416Z" transform="translate(-455.411 -336.089)" fill="#d5d6db"/>
    <path id="Path_61" data-name="Path 61" d="M167.89,371.193l76.868-14.013,101.856,16.225-63.266,22.776Z" transform="translate(-116.697 -248.429)" fill="#56c596"/>
    <path id="Path_62" data-name="Path 62" d="M249.913,446.26s-7.2,13.62,1.083,26.2l113.989,24.7s-7.076-10.859.374-25.909Z" transform="translate(-198.609 -323.666)" fill="#56c596"/>
    <path id="Path_63" data-name="Path 63" d="M249.913,446.26s-7.2,13.62,1.083,26.2l113.989,24.7s-7.076-10.859.374-25.909Z" transform="translate(-198.609 -323.666)" opacity="0.1"/>
    <path id="Path_64" data-name="Path 64" d="M263.415,461.65s-4.109,9.966,0,16.416" transform="translate(-208.504 -334.216)" opacity="0.1"/>
    <path id="Path_65" data-name="Path 65" d="M374.029,556.35l63.637-20.4s3.559.767,1.258,3.375-63.668,19.637-63.668,19.637L260.04,531.65Z" transform="translate(-207.76 -382.941)" fill="#56c596"/>
    <path id="Path_66" data-name="Path 66" d="M374.029,556.35l63.637-20.4s3.559.767,1.258,3.375-63.668,19.637-63.668,19.637L260.04,531.65Z" transform="translate(-207.76 -382.941)" opacity="0.1"/>
    <path id="Path_67" data-name="Path 67" d="M608.378,536.65s-6.137,7.364,0,18.41" transform="translate(-447.426 -386.375)" opacity="0.1"/>
    <rect id="Rectangle_13" data-name="Rectangle 13" width="29.017" height="0.307" transform="translate(163.089 159.377) rotate(-18.45)" opacity="0.1"/>
    <rect id="Rectangle_14" data-name="Rectangle 14" width="35.356" height="0.307" transform="translate(163.071 161.839) rotate(-20.82)" opacity="0.1"/>
    <rect id="Rectangle_15" data-name="Rectangle 15" width="40.981" height="0.307" transform="translate(163.239 164.735) rotate(-22.26)" opacity="0.1"/>
    <rect id="Rectangle_16" data-name="Rectangle 16" width="47.173" height="0.307" transform="translate(163.678 167.293) rotate(-24.31)" opacity="0.1"/>
    <rect id="Rectangle_17" data-name="Rectangle 17" width="51.594" height="0.307" transform="matrix(0.916, -0.401, 0.401, 0.916, 164.007, 168.535)" opacity="0.1"/>
    <rect id="Rectangle_18" data-name="Rectangle 18" width="61.741" height="0.307" transform="translate(164.701 170.63) rotate(-23.36)" opacity="0.1"/>
    <path id="Path_68" data-name="Path 68" d="M260.96,382.083l54-11.353,32.9,6.29L303.61,391.288Z" transform="translate(-181.186 -257.782)" fill="#fff" opacity="0.3"/>
    <path id="Path_69" data-name="Path 69" d="M696.023,453.48s2.792,1.126,1.154,2.866-64.417,19.91-64.417,19.91Z" transform="translate(-466.352 -328.56)" fill="#56c596"/>
    <path id="Path_70" data-name="Path 70" d="M375.487,149.886s-11.66-.7-10.3,7.478a2,2,0,0,0,1.037,2.1s.021-.614,1.2-.4a5.232,5.232,0,0,0,1.27.061,2.645,2.645,0,0,0,1.549-.638h0s3.28-1.356,4.556-6.72c0,0,.945-1.169.921-1.47l-1.976.841a3.54,3.54,0,0,1,.144,2.6s-.064-2.55-.445-2.491c-.077,0-1.022.494-1.022.494s1.157,2.476.282,4.274c0,0,.331-3.05-.644-4.1l-1.387.81s1.353,2.556.436,4.642c0,0,.236-3.2-.727-4.446l-1.258.982s1.273,2.519.5,4.25c0,0-.1-3.725-.767-4.007a7.583,7.583,0,0,0-1.267,1.368s.871,1.841.328,2.8c0,0-.328-2.482-.614-2.495a8.26,8.26,0,0,0-1.209,2.761,5.971,5.971,0,0,1,.942-2.927,3.286,3.286,0,0,0-1.675.868s.169-1.163,1.948-1.264a7.543,7.543,0,0,1,1.148-1.322,7.183,7.183,0,0,0-2.841.325s.945-1.1,3.163-.614L370,152.635a10.587,10.587,0,0,0-3.314.034s1.138-.97,3.648-.264l1.353-.807a12.3,12.3,0,0,0-3.167-.273,4.86,4.86,0,0,1,3.562.055l.963-.433s-1.451-.285-1.878-.331-.448-.163-.448-.163a5.066,5.066,0,0,1,2.731.307A12.179,12.179,0,0,0,375.487,149.886Z" transform="translate(-280.476 -117.203)" fill="#56c596"/>
    <path id="Path_71" data-name="Path 71" d="M910.087,259.466s-11.66-.7-10.3,7.478a2,2,0,0,0,1.037,2.1s.021-.614,1.2-.4a5.409,5.409,0,0,0,1.27.061,2.636,2.636,0,0,0,1.534-.638h0s3.283-1.356,4.556-6.72c0,0,.945-1.169.921-1.47l-1.97.841a3.54,3.54,0,0,1,.144,2.6s-.064-2.55-.442-2.491c-.077,0-1.025.494-1.025.494s1.157,2.476.285,4.274c0,0,.331-3.05-.647-4.1l-1.387.81s1.353,2.556.436,4.642c0,0,.236-3.2-.727-4.446l-1.255.982s1.27,2.519.494,4.25c0,0-.1-3.725-.767-4.007a7.7,7.7,0,0,0-1.267,1.368s.871,1.841.331,2.8c0,0-.331-2.482-.614-2.495a8.259,8.259,0,0,0-1.209,2.762,5.952,5.952,0,0,1,.945-2.927,3.3,3.3,0,0,0-1.678.868s.172-1.163,1.948-1.264a7.659,7.659,0,0,1,1.148-1.326,7.212,7.212,0,0,0-2.841.328s.945-1.1,3.163-.614l1.227-1.013a10.59,10.59,0,0,0-3.314.034s1.135-.97,3.648-.264l1.35-.807a12.3,12.3,0,0,0-3.167-.273,4.86,4.86,0,0,1,3.562.055l.966-.433s-1.454-.285-1.881-.331-.448-.163-.448-.163a5.029,5.029,0,0,1,2.731.307A12.38,12.38,0,0,0,910.087,259.466Z" transform="translate(-651.498 -193.608)" fill="#56c596"/>
    <path id="Path_72" data-name="Path 72" d="M433.9,299.3s-5.081-10.534-11.549-5.342a1.993,1.993,0,0,0-1.329,1.93s.537-.279.921.85a5.439,5.439,0,0,0,.565,1.135,2.648,2.648,0,0,0,1.316,1.043h0s2.783,2.2,8.088.7a5.249,5.249,0,0,0,1.724.077l-1.694-1.31a3.561,3.561,0,0,1-2.2,1.393s2.2-1.3,1.961-1.6c-.049-.061-.92-.654-.92-.654s-1.6,2.218-3.593,2.332c0,0,2.823-1.2,3.259-2.562l-1.381-.816s-1.574,2.43-3.842,2.645c0,0,2.909-1.353,3.526-2.8l-1.467-.614s-1.58,2.338-3.47,2.507c0,0,3.2-1.905,3.124-2.627a7.777,7.777,0,0,0-1.813-.439s-1.172,1.654-2.277,1.654c0,0,2-1.5,1.881-1.743a8.094,8.094,0,0,0-3.007.307,5.974,5.974,0,0,1,3.016-.614,3.3,3.3,0,0,0-1.577-1.04s1.1-.417,2.053,1.083a7.568,7.568,0,0,1,1.715.356,7.2,7.2,0,0,0-1.669-2.317s1.418.285,2.065,2.455l1.488.589a10.234,10.234,0,0,0-1.645-2.875s1.4.519,2.01,3.068l1.362.785a12.14,12.14,0,0,0-1.3-2.9,4.862,4.862,0,0,1,1.688,3.136l.85.632s-.46-1.408-.614-1.8-.077-.473-.077-.473a5.035,5.035,0,0,1,1.068,2.531A11.447,11.447,0,0,0,433.9,299.3Z" transform="translate(-319.303 -216.598)" fill="#56c596"/>
    <path id="Path_73" data-name="Path 73" d="M817.683,195.683s-5.078-10.534-11.549-5.342a2,2,0,0,0-1.329,1.93s.54-.276.921.85a5.32,5.32,0,0,0,.568,1.138,2.633,2.633,0,0,0,1.313,1.04h0s2.786,2.2,8.088.7a5.273,5.273,0,0,0,1.727.074l-1.685-1.313a3.56,3.56,0,0,1-2.2,1.4s2.194-1.3,1.958-1.6c-.049-.061-.92-.654-.92-.654s-1.6,2.218-3.593,2.332c0,0,2.826-1.2,3.262-2.559l-1.4-.81s-1.571,2.427-3.842,2.645c0,0,2.909-1.356,3.529-2.8l-1.47-.614s-1.58,2.341-3.467,2.507c0,0,3.2-1.905,3.12-2.623a7.589,7.589,0,0,0-1.81-.439s-1.172,1.651-2.28,1.651c0,0,2.007-1.5,1.884-1.743a8.113,8.113,0,0,0-3.01.307,5.971,5.971,0,0,1,3.016-.614,3.286,3.286,0,0,0-1.574-1.04s1.1-.417,2.053,1.083a7.6,7.6,0,0,1,1.715.359,7.18,7.18,0,0,0-1.672-2.32s1.418.288,2.065,2.47l1.491.589a10.238,10.238,0,0,0-1.645-2.878s1.4.519,2.007,3.068l1.365.785a12.252,12.252,0,0,0-1.307-2.9A4.847,4.847,0,0,1,814.7,193.5l.85.632s-.457-1.408-.614-1.8-.077-.469-.077-.469a5.048,5.048,0,0,1,1.065,2.531A11.787,11.787,0,0,0,817.683,195.683Z" transform="translate(-585.657 -144.556)" fill="#56c596"/>
    <path id="Path_74" data-name="Path 74" d="M870.552,365.487s-5.078-10.537-11.558-5.345a2,2,0,0,0-1.329,1.93s.54-.276.921.85a5.317,5.317,0,0,0,.565,1.138,2.633,2.633,0,0,0,1.313,1.04h0s2.786,2.206,8.091.7c0,0,1.479.255,1.724.074l-1.694-1.31a3.56,3.56,0,0,1-2.2,1.4s2.194-1.3,1.958-1.6c-.049-.061-.921-.654-.921-.654s-1.6,2.218-3.593,2.335c0,0,2.826-1.2,3.262-2.562l-1.384-.816s-1.571,2.43-3.842,2.645c0,0,2.909-1.356,3.529-2.8l-1.47-.614s-1.58,2.338-3.467,2.507c0,0,3.2-1.905,3.124-2.626a7.622,7.622,0,0,0-1.813-.439s-1.172,1.651-2.28,1.651c0,0,2.007-1.5,1.884-1.743a8.113,8.113,0,0,0-3.01.307,5.99,5.99,0,0,1,3.019-.614,3.28,3.28,0,0,0-1.577-1.04s1.1-.42,2.053,1.083a7.569,7.569,0,0,1,1.715.356,7.237,7.237,0,0,0-1.669-2.32s1.418.288,2.065,2.47l1.488.589a10.193,10.193,0,0,0-1.645-2.875s1.4.515,2.007,3.068l1.365.782a12.256,12.256,0,0,0-1.307-2.9,4.859,4.859,0,0,1,1.691,3.139l.85.614s-.46-1.408-.614-1.8-.077-.469-.077-.469a5.017,5.017,0,0,1,1.065,2.531A12.421,12.421,0,0,0,870.552,365.487Z" transform="translate(-622.343 -262.61)" fill="#56c596"/>
    <ellipse id="Ellipse_1" data-name="Ellipse 1" cx="7.054" cy="0.789" rx="7.054" ry="0.789" transform="translate(54.757 237.398)" fill="#56c596" opacity="0.1"/>
    <ellipse id="Ellipse_2" data-name="Ellipse 2" cx="7.054" cy="0.789" rx="7.054" ry="0.789" transform="translate(8.668 223.996)" fill="#56c596" opacity="0.1"/>
    <ellipse id="Ellipse_3" data-name="Ellipse 3" cx="7.054" cy="0.789" rx="7.054" ry="0.789" transform="translate(89.907 246.299)" fill="#56c596" opacity="0.1"/>
    <ellipse id="Ellipse_4" data-name="Ellipse 4" cx="7.054" cy="0.789" rx="7.054" ry="0.789" transform="translate(269.951 226.911)" fill="#56c596" opacity="0.1"/>
    <ellipse id="Ellipse_5" data-name="Ellipse 5" cx="7.054" cy="0.789" rx="7.054" ry="0.789" transform="translate(211.497 223.084)" fill="#56c596" opacity="0.1"/>
    <ellipse id="Ellipse_6" data-name="Ellipse 6" cx="8.343" cy="1.433" rx="8.343" ry="1.433" transform="translate(172.34 240.457)" fill="#56c596" opacity="0.1"/>
    <path id="Path_75" data-name="Path 75" d="M674.6,790.14s-11.617,6-5.615,13.071a2.245,2.245,0,0,0,2.2,1.427s-.325-.6.92-1.071a5.982,5.982,0,0,0,1.255-.666,2.949,2.949,0,0,0,1.123-1.5h0s2.375-3.179.534-9.061a5.829,5.829,0,0,0,.031-1.933l-1.411,1.936a3.953,3.953,0,0,1,1.626,2.418s-1.534-2.415-1.841-2.148c-.067.055-.7,1.059-.7,1.059s2.528,1.715,2.716,3.943c0,0-1.424-3.12-2.961-3.565l-.881,1.571s2.762,1.681,3.068,4.21c0,0-1.6-3.206-3.243-3.854l-.647,1.66s2.663,1.694,2.909,3.8c0,0-2.228-3.519-3.028-3.409a8.507,8.507,0,0,0-.436,2.04s1.881,1.258,1.915,2.495c0,0-1.737-2.194-2-2.05a9.247,9.247,0,0,0,.423,3.354,6.62,6.62,0,0,1-.77-3.354,3.682,3.682,0,0,0-1.114,1.792s-.5-1.212,1.148-2.329a8.49,8.49,0,0,1,.347-1.927,8.087,8.087,0,0,0-2.541,1.939s.279-1.592,2.7-2.384l.614-1.681a11.435,11.435,0,0,0-3.163,1.927s.537-1.58,3.354-2.338l.835-1.534a14.088,14.088,0,0,0-3.2,1.534s.813-1.359,3.455-1.985l.678-.967s-1.559.555-1.994.755-.522.1-.522.1a5.642,5.642,0,0,1,2.8-1.27A13.67,13.67,0,0,0,674.6,790.14Z" transform="translate(-490.191 -562.653)" fill="#56c596"/>
    <path id="Path_77" data-name="Path 77" d="M686.65,279.512s4.695,12.273,7.364,11.046,1.945-6.444,2.455-7.873,1.074-12.273,1.074-12.273.258-7.671.767-9.223c.473-1.427.856-8.622.92-9.754v-.15l-.506-8.9-2.866-.715-6.646,2.455-.92,5.256-.359,2.053-.153.874Z" transform="translate(-503.655 -181.327)" fill="#c06e74"/>
    <path id="Path_78" data-name="Path 78" d="M691.69,358.3s4.48,3.667,5.83,3.989,2.179,3.182,2.179,3.182" transform="translate(-507.145 -262.328)" opacity="0.1"/>
    <path id="Path_79" data-name="Path 79" d="M538.58,281.262s-4.695,12.273-7.364,11.046-1.945-6.444-2.455-7.873-1.074-12.273-1.074-12.273-.258-7.671-.767-9.223c-.473-1.427-.856-8.622-.921-9.754v-.15l.509-8.9,2.866-.715,6.646,2.455.92,5.256.359,2.053.153.874Z" transform="translate(-392.16 -182.544)" fill="#c06e74"/>
    <rect id="Rectangle_19" data-name="Rectangle 19" width="10.478" height="16.333" transform="translate(166.423 33.533)" fill="#3e373a"/>
    <rect id="Rectangle_20" data-name="Rectangle 20" width="10.478" height="16.333" transform="translate(166.423 33.533)" opacity="0.1"/>
    <path id="Path_80" data-name="Path 80" d="M555.244,404.384s-3.581,3.937-2.252,4.652,9.923,14.114,9.923,14.114,28.229,3.476,33.552-1.74,5.216-14.535,5.216-14.535-4.277.921-4.744.42-3.028-2.912-3.028-2.912S557.7,402.187,555.244,404.384Z" transform="translate(-410.743 -293.734)" fill="#4b4b5b"/>
    <path id="Path_81" data-name="Path 81" d="M555.244,404.384s-3.581,3.937-2.252,4.652,9.923,14.114,9.923,14.114,28.229,3.476,33.552-1.74,5.216-14.535,5.216-14.535-4.277.921-4.744.42-3.028-2.912-3.028-2.912S557.7,402.187,555.244,404.384Z" transform="translate(-410.743 -293.734)" opacity="0.02"/>
    <path id="Path_82" data-name="Path 82" d="M588.708,180.622l-9.205,7.364-2.783.2-1.022.074-17.161,1.258-17.8-1.3-2.648-.193-3.375-.245-7.057-6.75a120.862,120.862,0,0,1,9.371-8.963,19.225,19.225,0,0,1,4.541-3.035l.2-.071a5.05,5.05,0,0,0,1.945-1.356c3.455-3.562,6.649-12.353,6.649-12.353s15.24-7.873,13.4,2.455,6.852,7.775,6.852,7.775l2.866,1.307,1.132.519,2.887,1.322,6.514,2.989C589.131,173.973,588.708,180.622,588.708,180.622Z" transform="translate(-393.384 -118.943)" fill="#c06e74"/>
    <circle id="Ellipse_7" data-name="Ellipse 7" cx="13.706" cy="13.706" r="13.706" transform="translate(150.735 17.308)" opacity="0.1"/>
    <path id="Path_83" data-name="Path 83" d="M587.578,227.8H526v-.15l.509-8.9a120.861,120.861,0,0,1,9.371-8.963l38.661-1.534,1.8-1.9,6.514,2.989c5.115,2.35,4.7,9,4.7,9S588.257,226.053,587.578,227.8Z" transform="translate(-392.233 -156.713)" opacity="0.1"/>
    <path id="Path_84" data-name="Path 84" d="M587.578,226.8H526v-.15l.509-8.9a120.863,120.863,0,0,1,9.371-8.963l38.661-1.534,1.8-1.9,6.514,2.989c5.115,2.35,4.7,9,4.7,9S588.257,225.053,587.578,226.8Z" transform="translate(-392.233 -156.018)" fill="#e7c7ca"/>
    <path id="Path_85" data-name="Path 85" d="M585.125,187.864s9.714,12.378,22.654-.255,1.433,28.177,1.433,28.177L581.29,219.1Z" transform="translate(-430.563 -142.005)" opacity="0.1"/>
    <path id="Path_86" data-name="Path 86" d="M585.125,189.864s9.714,12.378,22.654-.255,1.433,28.176,1.433,28.176L581.29,221.1Z" transform="translate(-430.563 -143.396)" fill="#e7c7ca"/>
    <path id="Path_87" data-name="Path 87" d="M591.154,201.856l1.028,15.676,1.1,5.216.841,3.989s2.148,30.683,1.534,32.217.307,2.762.436,3.578-.129,2.866-.028,3.786,0,1.329-2.35,1-5.627-.9-5.627-.9-8.284.614-11.147-.408-8.285-1.025-8.285-1.025-8.183.206-10.84-.1-4.093,3.274-5.83,2.249,2.044-10.942,3.271-13.808-1.635-10.126-1.635-10.126l3.682-20.426.819-4.63V203.59l.2-.071a5.05,5.05,0,0,0,1.945-1.356l.921,14.648,28.842,1.025V201.35" transform="translate(-409.931 -153.313)" opacity="0.1"/>
    <path id="Path_88" data-name="Path 88" d="M591.154,199.856l1.028,15.676,1.1,5.216.841,3.989s2.148,30.683,1.534,32.217.307,2.762.436,3.578-.129,2.866-.028,3.786,0,1.329-2.35,1-5.627-.9-5.627-.9-8.284.614-11.147-.408-8.285-1.025-8.285-1.025-8.183.206-10.84-.1-4.093,3.274-5.83,2.249,2.044-10.942,3.271-13.808-1.635-10.126-1.635-10.126l3.682-20.426.819-4.63V201.59l.2-.071a5.05,5.05,0,0,0,1.945-1.356l.921,14.648,28.842,1.025V199.35" transform="translate(-409.931 -151.921)" fill="#e7c7ca"/>
    <path id="Path_90" data-name="Path 90" d="M585.775,60.718a3.381,3.381,0,0,0-.92-1.737,3.768,3.768,0,0,0-1.62-.663,32.008,32.008,0,0,0-4.259-.816,6.819,6.819,0,0,0-.92-1.912c-3.007-4.247-7.456-8.251-12.691-9.156-2.74-.476-5.916-.049-7.671,2.111-.964,1.187-1.378,2.761-2.35,3.927-1.875,2.264-5.259,2.544-7.622,4.3a14.12,14.12,0,0,0-3.068,3.55,12.18,12.18,0,0,0-2.268,4.538c-.614,3.348,1.6,6.539,2.007,9.917.921,7.557-7.18,14.262-5.649,21.718.893,4.348,4.909,7.41,9.064,8.963,1.464.549,3.136,1.1,3.82,2.5.307.614.359,1.322.647,1.942.97,2.068,4.158,2.148,5.87.641s2.252-3.943,2.455-6.216c.822-9.929-3.154-19.739-2.691-29.692.138-3.01.985-6.425,3.682-7.787,3.63-1.841,8,1.227,11.991.641A23.789,23.789,0,0,1,574.729,82c-.635,2.648-1.734,5.216-1.813,7.947-.12,4.158,2.123,7.956,4.062,11.632a6.19,6.19,0,0,1,.819,2.243,5.406,5.406,0,0,1-.439,2.347c-1.1,2.949-2.985,5.686-3.2,8.825a1.426,1.426,0,0,0,.23,1.049,1.319,1.319,0,0,0,.792.356c3.314.568,6.18-2.369,7.8-5.317a24.926,24.926,0,0,0,3.074-10.592c.334-6.247-1.905-12.393-1.767-18.646C584.443,74.734,587.656,67.575,585.775,60.718Z" transform="translate(-400.921 -45.383)" fill="#3e373a"/>
    <path id="Path_91" data-name="Path 91" d="M581.79,473.217l12.172.39-1.746-9.027-9.325.887Z" transform="translate(-403.776 -322.994)" fill="#c3c7d9"/>
    <path id="Path_92" data-name="Path 92" d="M665.519,423.454c-.819,1.022-3.989,2.863-4.3,3.476s-4.09,2.455-6.035,2.761-8.079,1.638-9.205,2.353c-.807.515-7.284,2.148-11.54,3.053a32.758,32.758,0,0,1-3.495.629c-1.841.1-21.988-6.75-21.988-6.75l3.885-3.989.215-.074c1.1-.371,6.173-2.086,8.99-2.9,3.173-.921,6.855-4.7,6.855-4.7s5.419-1.841,6.137-2.047S633.2,408.1,633.2,408.1s11.761-1.632,16.363-3.016,15.24-.871,17.183,4.55S666.35,422.432,665.519,423.454Z" transform="translate(-449.817 -294.485)" fill="#4b4b5b"/>
    <path id="Path_93" data-name="Path 93" d="M559.937,498.26s-2.35,2.455-4.7,2.252-10.583.614-10.583.614a16.5,16.5,0,0,0-4.145,2.4c-1.924,1.516-2.946.307-3.136.049l-.034-.049c-1.025,3.225-3.375.767-3.375.767s1.022-9.819.709-11.046,2.022-3.335,2.022-3.335l2.761-.7,7-1.792,10.024,3.476Z" transform="translate(-397.702 -352.14)" fill="#e7c7ca"/>
    <path id="Path_94" data-name="Path 94" d="M539.44,493.26l-2.071,14.366-.034-.049c-1.025,3.225-3.375.767-3.375.767s1.022-9.819.709-11.046,2.022-3.335,2.022-3.335Z" transform="translate(-397.676 -356.194)" opacity="0.1"/>
    <path id="Path_95" data-name="Path 95" d="M599,360.08s5.419,1.841,10.125,0" transform="translate(-442.82 -263.549)" opacity="0.1"/>
    <path id="Path_96" data-name="Path 96" d="M659.29,371.42s2.249,1.123,3.989,0" transform="translate(-484.653 -271.431)" opacity="0.1"/>
    <path id="Path_97" data-name="Path 97" d="M659.29,378.935s3.783.506,4.5-.516" transform="translate(-484.654 -276.298)" opacity="0.1"/>
    <path id="Path_98" data-name="Path 98" d="M655.29,393.9s7.106-.921,8.871-2.148" transform="translate(-481.885 -285.569)" opacity="0.1"/>
    <path id="Path_99" data-name="Path 99" d="M584.62,391.75s3.989,2.249,6.956,2.148" transform="translate(-432.836 -285.569)" opacity="0.1"/>
    <path id="Path_100" data-name="Path 100" d="M634.432,481.364a32.758,32.758,0,0,1-3.495.629c-1.841.1-21.988-6.75-21.988-6.75l3.885-3.989.215-.074c.614.433,1.117.8,1.476,1.086,1.691,1.332,3.323-.408,3.937-.408s5.931,4.4,5.931,4.4,4.909,1.126,5.729,2.148,3.682.819,4.191,1.534A2.737,2.737,0,0,1,634.432,481.364Z" transform="translate(-449.749 -340.821)" opacity="0.1"/>
    <path id="Path_101" data-name="Path 101" d="M500.807,409.547s-4.965.285-7.827-.92-12.375-3.989-15.136-2.034-9.411,3.682-6.342,11.457,4.5,7.978,4.5,7.978a11.077,11.077,0,0,1,2.455,2.547c.921,1.433,9.512,4.7,11.66,4.7s5.931,0,11.249,3.682a23.118,23.118,0,0,0,10.125,4.093s6.75,2.761,8.852,3.375,11.706,3.271,13.958,2.455,3.682-5.934,3.682-5.934,1.022-4.6.509-5.317-3.375-.512-4.191-1.534-5.729-2.148-5.729-2.148-5.305-4.4-5.919-4.4-2.246,1.737-3.937.408a89.811,89.811,0,0,0-10.589-6.75C504.244,419.16,500.807,409.547,500.807,409.547Z" transform="translate(-353.861 -295.555)" fill="#4b4b5b"/>
    <path id="Path_102" data-name="Path 102" d="M536.27,427.152a5.861,5.861,0,0,1,5.029,1.329c2.455,2.047,10.715,6.155,10.715,6.155" transform="translate(-399.292 -310.116)" opacity="0.1"/>
    <path id="Path_103" data-name="Path 103" d="M706.948,427S696,428.657,693.96,430.906" transform="translate(-508.729 -310.081)" opacity="0.1"/>
    <path id="Path_104" data-name="Path 104" d="M713.747,502.762h-.482a82.515,82.515,0,0,0-8.723,0c-1.329.307-18.922,0-18.922,0l3.44-.715s-1.276-4.474-.466-4.845c0,0-4.6-3.031-1.132-5.078a10.766,10.766,0,0,1,7.211-1.184l8.711-2.952,1.672-.568s9.819.512,12.476,7.263S713.747,502.762,713.747,502.762Z" transform="translate(-502.977 -352.131)" fill="#e7c7ca"/>
    <path id="Path_105" data-name="Path 105" d="M753.875,502.8h-.482c2.857-2.357,9.319-9.53-9.883-14.759l1.672-.568s9.819.512,12.476,7.263S753.875,502.8,753.875,502.8Z" transform="translate(-543.121 -352.165)" opacity="0.1"/>
    <circle id="Ellipse_8" data-name="Ellipse 8" cx="0.537" cy="0.537" r="0.537" transform="translate(192.212 141.617)" fill="#4b4b5b"/>
    <circle id="Ellipse_9" data-name="Ellipse 9" cx="0.537" cy="0.537" r="0.537" transform="translate(189.1 142.498)" fill="#4b4b5b"/>
    <g id="Group_1" data-name="Group 1" transform="translate(137.712 19.302)" opacity="0.1">
      <path id="Path_106" data-name="Path 106" d="M619.274,117.76a23.806,23.806,0,0,0-1.761-9.862c-3.989.6-8.358-2.482-11.991-.641-2.688,1.362-3.532,4.777-3.682,7.787-.037.795-.043,1.589-.028,2.384,0-.282,0-.568.028-.85.141-3.01.985-6.425,3.682-7.787,3.633-1.841,8,1.227,11.991.641A23.744,23.744,0,0,1,619.274,117.76Z" transform="translate(-582.48 -106.554)"/>
      <path id="Path_107" data-name="Path 107" d="M553.15,118.59a10.227,10.227,0,0,0-.04-2.007c-.325-2.7-1.8-5.281-2.068-7.913-.344,3.176,1.678,6.226,2.068,9.447A1.916,1.916,0,0,1,553.15,118.59Z" transform="translate(-547.265 -107.946)"/>
      <path id="Path_108" data-name="Path 108" d="M560.874,210.354c-.19,2.277-.727,4.71-2.455,6.22s-4.909,1.427-5.87-.641c-.307-.614-.353-1.329-.65-1.942-.681-1.405-2.357-1.951-3.82-2.5-4.158-1.556-8.168-4.6-9.061-8.963a9.427,9.427,0,0,1-.163-1.2,9.673,9.673,0,0,0,.163,2.731c.893,4.348,4.909,7.407,9.061,8.963,1.464.549,3.139,1.1,3.82,2.5.307.614.359,1.322.65,1.942.967,2.068,4.155,2.148,5.87.641s2.249-3.943,2.455-6.22a35.065,35.065,0,0,0,.1-3.6C560.969,208.982,560.929,209.67,560.874,210.354Z" transform="translate(-538.823 -172.175)"/>
      <path id="Path_109" data-name="Path 109" d="M687.93,122.014v1.329c.172-5.707,2.264-11.445,2.059-17.032C689.829,111.477,688.047,116.761,687.93,122.014Z" transform="translate(-642.179 -106.31)"/>
      <path id="Path_110" data-name="Path 110" d="M655.6,201.267a3.957,3.957,0,0,0,.071-1.108,6.137,6.137,0,0,0-.819-2.243c-1.773-3.375-3.8-6.83-4.035-10.577,0,.16-.021.307-.025.479-.123,4.155,2.12,7.956,4.059,11.632a7.363,7.363,0,0,1,.749,1.816Z" transform="translate(-616.431 -162.477)"/>
      <path id="Path_111" data-name="Path 111" d="M666.71,216.874a24.966,24.966,0,0,1-3.1,10.592c-1.62,2.949-4.483,5.885-7.8,5.317a1.3,1.3,0,0,1-.792-.359.767.767,0,0,1-.144-.239c-.037.239-.067.482-.086.727a1.414,1.414,0,0,0,.23,1.046,1.3,1.3,0,0,0,.792.359c3.317.568,6.18-2.369,7.8-5.317a24.966,24.966,0,0,0,3.1-10.592c.037-.718.04-1.433.018-2.148C666.723,216.466,666.723,216.668,666.71,216.874Z" transform="translate(-619.195 -182.524)"/>
    </g>
    <path id="Path_112" data-name="Path 112" d="M695.31,510.372s7.766,3.259,12.887-3.952" transform="translate(-509.666 -365.298)" fill="none" stroke="#000" stroke-miterlimit="10" stroke-width="1" opacity="0.1"/>
    <path id="Path_113" data-name="Path 113" d="M700.29,533.628a15.141,15.141,0,0,1,14.421-.135" transform="translate(-513.125 -382.9)" fill="none" stroke="#000" stroke-miterlimit="10" stroke-width="1" opacity="0.1"/>
    <path id="Path_114" data-name="Path 114" d="M561.93,527.7s2.663-6.008,9.776-1.427" transform="translate(-417.093 -377.894)" fill="none" stroke="#000" stroke-miterlimit="10" stroke-width="1" opacity="0.1"/>
    <path id="Path_115" data-name="Path 115" d="M533.79,231.688l5.431-4.909s21.058-1.381,21.929,5.778c0,0,7.465-8.487,23.166-6.6l6.643,5.29L572.6,239.307,554.756,245.5l-13.142-5.882Z" transform="translate(-397.633 -170.149)" opacity="0.1"/>
    <path id="Path_116" data-name="Path 116" d="M533.79,232.688l5.431-4.909s21.058-1.381,21.929,5.778c0,0,7.465-8.487,23.166-6.6l6.643,5.29L572.6,240.307,554.756,246.5l-13.142-5.882Z" transform="translate(-397.633 -170.844)" fill="#d5d6db"/>
    <path id="Path_117" data-name="Path 117" d="M437.38,204.83l2.4,28.741,25.467,1.279-1.1-28.618-.021-.482Z" transform="translate(-303.572 -142.44)" opacity="0.1"/>
    <path id="Path_118" data-name="Path 118" d="M437.38,202.83l2.4,28.741,25.467,1.28-1.1-28.618-.021-.482Z" transform="translate(-303.572 -141.049)" fill="#56c596"/>
    <path id="Path_119" data-name="Path 119" d="M575.981,202.83l-26.271,3.94v28.87l25.673-3.71Z" transform="translate(-381.535 -141.055)" opacity="0.1"/>
    <path id="Path_120" data-name="Path 120" d="M575.981,200.83l-26.271,3.94v28.87l25.673-3.71Z" transform="translate(-381.535 -139.664)" fill="#56c596"/>
    <path id="Path_121" data-name="Path 121" d="M583.081,223.79l-14.191,1.577.31,4.836,13.872-1.516Z" transform="translate(-394.826 -155.577)" fill="#fff" opacity="0.3"/>
    <path id="Path_122" data-name="Path 122" d="M536.9,332.256l1.445,3.888s2.148,1.841,4.5.921,4.4-1.378,5.422-2.274,2.455-5.4,2.455-5.4,1.433-4.909,2.863-6.137,5.216-18.137,0-16.483-9.205,17-9.205,17A3.638,3.638,0,0,1,542.125,325c-1.329.1-3.989-.206-4.5.92S535.363,330.006,536.9,332.256Z" transform="translate(-399.304 -226.483)" fill="#c06e74"/>
    <path id="Path_123" data-name="Path 123" d="M620.885,254.741a8.837,8.837,0,0,1-7.7-1.921l1.108,28.615a7.809,7.809,0,0,0,6.6,2.179Z" transform="translate(-452.658 -189.04)" opacity="0.1"/>
    <path id="Path_124" data-name="Path 124" d="M620.885,252.741a8.837,8.837,0,0,1-7.7-1.921l1.108,28.615a7.809,7.809,0,0,0,6.6,2.178Z" transform="translate(-452.658 -187.649)" fill="#56c596"/>
    <path id="Path_125" data-name="Path 125" d="M620.885,252.741a8.837,8.837,0,0,1-7.7-1.921l1.108,28.615a7.809,7.809,0,0,0,6.6,2.178Z" transform="translate(-452.658 -187.649)" opacity="0.1"/>
    <path id="Path_126" data-name="Path 126" d="M640.29,240.127s10.687-3.268,13.473-2.808" transform="translate(-471.482 -178.179)" opacity="0.1"/>
    <path id="Path_127" data-name="Path 127" d="M574.019,237.667s-10.359-2.455-12.089-1.758" transform="translate(-417.096 -177.141)" opacity="0.1"/>
    <path id="Path_128" data-name="Path 128" d="M662.25,244.036s7.146-2.62,9.73-1.375" transform="translate(-486.716 -181.688)" opacity="0.1"/>
    <path id="Path_129" data-name="Path 129" d="M650.52,449.986a23.5,23.5,0,0,1,3.522-2.188,57.466,57.466,0,0,0,5.216-3.188" transform="translate(-478.574 -322.329)" opacity="0.1"/>
    <path id="Path_130" data-name="Path 130" d="M543.838,360.08s-4.483,3.667-5.83,3.989-2.179,3.182-2.179,3.182" transform="translate(-398.977 -263.565)" opacity="0.1"/>
    <path id="Path_131" data-name="Path 131" d="M671.627,330.5l-1.43,3.9s-2.148,1.841-4.5.921-4.4-1.378-5.422-2.274-2.455-5.4-2.455-5.4-1.43-4.909-2.863-6.137-5.216-18.137,0-16.483,9.205,17,9.205,17a3.638,3.638,0,0,0,2.249,1.227c1.329.1,3.989-.206,4.5.92S673.161,328.256,671.627,330.5Z" transform="translate(-479.818 -225.266)" fill="#c06e74"/>
    <path id="Path_132" data-name="Path 132" d="M707.15,364.94s2.93,1.884,2.918,4.136" transform="translate(-517.866 -266.936)" opacity="0.1"/>
    <circle id="Ellipse_10" data-name="Ellipse 10" cx="13.706" cy="13.706" r="13.706" transform="translate(150.784 16.636)" fill="#c06e74"/>
    <path id="Path_133" data-name="Path 133" d="M582.738,97.655c1.663-.261,3.12-1.227,4.71-1.783,3.556-1.249,7.49-.393,11.089.733a14.382,14.382,0,0,0,4.231.921,4.282,4.282,0,0,0,3.725-1.841,4.162,4.162,0,0,0-.025-3.845,10.828,10.828,0,0,0-2.5-3.09c-3.191-3.013-7.149-5.83-11.528-5.523a15.865,15.865,0,0,0-5.066,1.451,55.846,55.846,0,0,0-5.946,2.995c-1.476.856-4.21,2-5.06,3.565C574.432,94.765,579.731,98.128,582.738,97.655Z" transform="translate(-426.855 -70.993)" fill="#3e373a"/>
    <path id="Path_134" data-name="Path 134" d="M606.49,114.19a4.282,4.282,0,0,1-3.725,1.841,14.393,14.393,0,0,1-4.234-.9c-3.6-1.126-7.53-1.985-11.089-.733-1.586.555-3.047,1.534-4.71,1.78-2.424.38-6.327-1.731-6.75-4.415-.476,3.1,4.05,5.759,6.75,5.336,1.663-.261,3.124-1.227,4.71-1.78,3.559-1.252,7.49-.393,11.089.733a13.81,13.81,0,0,0,4.234.9,4.315,4.315,0,0,0,3.725-1.841,3.593,3.593,0,0,0,.43-2.243,3.308,3.308,0,0,1-.43,1.322Z" transform="translate(-426.852 -90.786)" opacity="0.1"/>
    <path id="Path_135" data-name="Path 135" d="M1026.688,661.63s1.82,2.378-.841,5.971-4.851,6.625-3.967,8.864c0,0,4.013-6.671,7.278-6.766S1030.275,665.64,1026.688,661.63Z" transform="translate(-736.217 -473.259)" fill="#56c596"/>
    <path id="Path_136" data-name="Path 136" d="M1026.923,661.63a2.949,2.949,0,0,1,.371.746c3.185,3.743,4.885,7.238,1.819,7.324-2.854.083-6.275,5.186-7.094,6.471a3,3,0,0,0,.1.307s4.013-6.671,7.278-6.766S1030.51,665.64,1026.923,661.63Z" transform="translate(-736.452 -473.259)" opacity="0.1"/>
    <path id="Path_137" data-name="Path 137" d="M1048.05,670.3c0,.838-.1,1.516-.209,1.516s-.212-.678-.212-1.516.117-.442.233-.442S1048.05,669.463,1048.05,670.3Z" transform="translate(-754.204 -478.846)" fill="#ffd037"/>
    <path id="Path_138" data-name="Path 138" d="M1049.551,673.436c-.733.4-1.375.641-1.43.54s.494-.509,1.227-.92.445-.11.5,0S1050.288,673.034,1049.551,673.436Z" transform="translate(-754.542 -480.983)" fill="#ffd037"/>
    <path id="Path_139" data-name="Path 139" d="M997.441,661.63s-1.82,2.378.841,5.971,4.851,6.625,3.964,8.864c0,0-4.01-6.671-7.278-6.766S993.863,665.64,997.441,661.63Z" transform="translate(-716.585 -473.259)" fill="#56c596"/>
    <path id="Path_140" data-name="Path 140" d="M997.441,661.63a2.948,2.948,0,0,0-.371.746c-3.185,3.743-4.885,7.238-1.82,7.324,2.85.083,6.275,5.186,7.094,6.471a2.38,2.38,0,0,1-.1.307s-4.01-6.671-7.278-6.766S993.863,665.64,997.441,661.63Z" transform="translate(-716.585 -473.259)" opacity="0.1"/>
    <path id="Path_141" data-name="Path 141" d="M995.64,670.3c0,.838.092,1.516.209,1.516s.212-.678.212-1.516-.12-.442-.233-.442S995.64,669.463,995.64,670.3Z" transform="translate(-718.166 -478.846)" fill="#ffd037"/>
    <path id="Path_142" data-name="Path 142" d="M990.851,673.436c.733.4,1.375.641,1.43.54s-.494-.509-1.227-.92-.445-.11-.5,0S990.115,673.034,990.851,673.436Z" transform="translate(-714.537 -480.983)" fill="#ffd037"/>
    <ellipse id="Ellipse_11" data-name="Ellipse 11" cx="19.024" cy="2.918" rx="19.024" ry="2.918" transform="translate(266.64 215.257)" fill="#56c596" opacity="0.1"/>
    <path id="Path_143" data-name="Path 143" d="M1009.987,697.021l-.092.743-.129,1.049-.052.439-.129,1.049-.055.439-.126,1.046-1.458,11.936c-.129,1.065-1.869,1.9-3.97,1.9h-7.563c-2.1,0-3.839-.832-3.97-1.9l-1.458-11.936-.129-1.046-.052-.439-.129-1.049-.055-.439-.126-1.049-.092-.743c-.071-.614.868-1.111,2.059-1.111h15.471C1009.119,695.91,1010.06,696.416,1009.987,697.021Z" transform="translate(-714.532 -497.336)" fill="#205072"/>
    <path id="Path_144" data-name="Path 144" d="M921.531,658.53l-.126,1.049H902.259l-.129-1.049Z" transform="translate(-626.169 -458.102)" fill="#d5d6db"/>
    <path id="Path_145" data-name="Path 145" d="M921.759,663.38l-.126,1.049H902.849l-.129-1.049Z" transform="translate(-626.577 -461.464)" fill="#d5d6db"/>
    <path id="Path_146" data-name="Path 146" d="M921.994,668.23l-.129,1.049H903.446l-.126-1.049Z" transform="translate(-626.993 -464.826)" fill="#d5d6db"/>
  </g>
</svg>
