<svg xmlns="http://www.w3.org/2000/svg" width="302.256" height="219.089" viewBox="0 0 302.256 219.089">
  <g id="Group_15" data-name="Group 15" transform="translate(0 0)">
    <path id="Path_248" data-name="Path 248" d="M468.773,584.643v52.814H336.455c-15.076,0-27.342-11.846-27.342-26.407s12.266-26.407,27.342-26.407Z" transform="translate(-276.161 -420.398)" fill="#f2f2f2"/>
    <path id="Path_249" data-name="Path 249" d="M467.867,635.269a2.032,2.032,0,0,1-2.031,2.031H329.943a27.829,27.829,0,1,1,0-55.657H465.836a2.031,2.031,0,1,1,0,4.063H329.943a23.766,23.766,0,0,0,0,47.532H465.836A2.032,2.032,0,0,1,467.867,635.269Z" transform="translate(-272.005 -418.617)" fill="#7be495"/>
    <path id="Path_250" data-name="Path 250" d="M493.711,613.456H351.52a.406.406,0,0,1,0-.812h142.19a.406.406,0,0,1,0,.813Z" transform="translate(-301.098 -437.023)" fill="#ccc"/>
    <path id="Path_251" data-name="Path 251" d="M493.711,637.456H351.52a.406.406,0,0,1,0-.813h142.19a.406.406,0,0,1,0,.813Z" transform="translate(-301.098 -451.273)" fill="#ccc"/>
    <path id="Path_252" data-name="Path 252" d="M493.711,661.456H351.52a.406.406,0,0,1,0-.813h142.19a.406.406,0,0,1,0,.813Z" transform="translate(-301.098 -465.523)" fill="#ccc"/>
    <path id="Path_253" data-name="Path 253" d="M493.711,685.456H351.52a.406.406,0,0,1,0-.812h142.19a.406.406,0,0,1,0,.813Z" transform="translate(-301.098 -479.773)" fill="#ccc"/>
    <path id="Path_254" data-name="Path 254" d="M739.624,478.715l-33.136,41.125L603.455,436.821c-11.739-9.459-13.858-26.379-4.722-37.717s26.119-12.867,37.859-3.408Z" transform="translate(-444.749 -304.529)" fill="#f2f2f2"/>
    <path id="Path_255" data-name="Path 255" d="M705.144,518.079a2.032,2.032,0,0,1-2.856.307L596.47,433.124a27.829,27.829,0,1,1,34.921-43.339l105.817,85.262a2.031,2.031,0,0,1-2.549,3.164L628.842,392.949a23.766,23.766,0,0,0-29.823,37.012l105.817,85.262a2.032,2.032,0,0,1,.308,2.856Z" transform="translate(-440.62 -301.046)" fill="#ccc"/>
    <path id="Path_256" data-name="Path 256" d="M772.97,501.034,662.25,411.821a.406.406,0,1,1,.51-.633L773.48,500.4a.406.406,0,1,1-.51.633Z" transform="translate(-485.742 -317.358)" fill="#ccc"/>
    <path id="Path_257" data-name="Path 257" d="M757.912,519.722,647.192,430.509a.406.406,0,1,1,.51-.633l110.721,89.213a.406.406,0,1,1-.51.633Z" transform="translate(-476.802 -328.453)" fill="#ccc"/>
    <path id="Path_258" data-name="Path 258" d="M742.854,538.411,632.134,449.2a.406.406,0,1,1,.51-.633l110.721,89.213a.406.406,0,1,1-.51.633Z" transform="translate(-467.861 -339.55)" fill="#ccc"/>
    <path id="Path_259" data-name="Path 259" d="M727.8,557.1,617.076,467.886a.406.406,0,1,1,.51-.633l110.72,89.213a.406.406,0,1,1-.51.633Z" transform="translate(-458.921 -350.646)" fill="#ccc"/>
    <path id="Path_260" data-name="Path 260" d="M529.85,718.456H228.406a.406.406,0,0,1,0-.813H529.85a.406.406,0,0,1,0,.813Z" transform="translate(-228 -499.366)" fill="#ccc"/>
    <path id="Path_261" data-name="Path 261" d="M328.065,364.44h-4.644l-2.209-17.914h6.855Z" transform="translate(-190.717 -205.746)" fill="#ffb8b8"/>
    <path id="Path_262" data-name="Path 262" d="M310.24,387.355H319.2v5.64H304.6a5.64,5.64,0,0,1,5.64-5.64Z" transform="translate(-180.854 -229.989)" fill="#2f2e41"/>
    <path id="Path_263" data-name="Path 263" d="M211.27,364.44h-4.644l-2.209-17.914h6.855Z" transform="translate(-121.371 -205.746)" fill="#ffb8b8"/>
    <path id="Path_264" data-name="Path 264" d="M193.446,387.355H202.4v5.64h-14.6a5.64,5.64,0,0,1,5.64-5.64Z" transform="translate(-111.508 -229.989)" fill="#2f2e41"/>
    <path id="Path_265" data-name="Path 265" d="M487.471,221.773v-2.031a13.1,13.1,0,0,1,13.1-13.1h0a13.1,13.1,0,0,1,13.1,13.1v2.031a9.446,9.446,0,0,1-9.446,9.446h-7.313a9.446,9.446,0,0,1-9.445-9.446Z" transform="translate(-382.059 -195.962)" fill="#2f2e41"/>
    <circle id="Ellipse_16" data-name="Ellipse 16" cx="9.978" cy="9.978" r="9.978" transform="translate(108.536 15.999)" fill="#ffb8b8"/>
    <path id="Path_266" data-name="Path 266" d="M634.488,376.475" transform="translate(-469.349 -296.8)" fill="#ffb8b8"/>
    <path id="Path_267" data-name="Path 267" d="M384.344,327.193a3.809,3.809,0,0,1,5.8.681l8.554-1.618,2.251,4.958-12.111,2.115a3.83,3.83,0,0,1-4.495-6.137Z" transform="translate(-320.104 -266.922)" fill="#ffb8b8"/>
    <path id="Path_268" data-name="Path 268" d="M444.2,283.6l.112.169-14.027,9.24-23.668,7.558a1.425,1.425,0,0,0-.98,1.519l.516,4.447a1.422,1.422,0,0,0,1.71,1.226l22.275-4.775a8.046,8.046,0,0,0,2.995-1.319l15.758-11.212a4.053,4.053,0,0,0-4.58-6.685Z" transform="translate(-333.466 -241.358)" fill="#ccc"/>
    <path id="Path_269" data-name="Path 269" d="M480.192,432.585a1.836,1.836,0,0,1-1.681-1.1l-21.292-52.611a.609.609,0,0,0-1.141.064L438.708,430.16a1.828,1.828,0,0,1-2.389,1.175l-5.825-2.184a1.824,1.824,0,0,1-1.177-1.505c-2.621-22.829,20.232-80.451,20.463-81.031l.064-.16,20.832,4.608.043.047c8.311,9.067,15.143,66.253,16.428,77.625a1.819,1.819,0,0,1-1.207,1.928l-5.142,1.818a1.811,1.811,0,0,1-.6.1Z" transform="translate(-347.406 -278.975)" fill="#2f2e41"/>
    <path id="Path_270" data-name="Path 270" d="M491.742,309.8c-5.047,0-10.674-1.006-12.406-5.16l-.04-.1.054-.088c1.367-2.243,3.174-6.07,2.2-6.788-1.913-1.415-2.841-3.742-2.759-6.917a16.665,16.665,0,0,1,11.686-15.228h0a51.867,51.867,0,0,1,5.794-1.492,9.864,9.864,0,0,1,8.179,2.02,9.964,9.964,0,0,1,3.7,7.666c.071,7.366-1.063,17.625-6.871,24.668a1.807,1.807,0,0,1-1.07.622A49.653,49.653,0,0,1,491.742,309.8Z" transform="translate(-376.903 -235.862)" fill="#ccc"/>
    <path id="Path_271" data-name="Path 271" d="M505.838,349.407a3.882,3.882,0,0,1,4.745-2.707,3.824,3.824,0,0,1,.588.218l6.495-5.911,4.517,3.043-9.288,8.219a3.875,3.875,0,0,1-4.393,1.863,3.816,3.816,0,0,1-2.663-4.725Z" transform="translate(-392.878 -275.742)" fill="#ffb8b8"/>
    <path id="Path_272" data-name="Path 272" d="M526.218,315.24a1.823,1.823,0,0,1-1.156-.412l-2.561-2.093a1.828,1.828,0,0,1,.044-2.866l10.742-8.239a.611.611,0,0,0,.115-.851l-6.63-8.766a5.4,5.4,0,0,1,.361-6.953h0a5.382,5.382,0,0,1,7.267-.581l.042.044,6.923,9.914a6.172,6.172,0,0,1-.146,9.826l-13.913,10.619a1.831,1.831,0,0,1-1.088.359Z" transform="translate(-402.459 -241.499)" fill="#ccc"/>
    <path id="Path_273" data-name="Path 273" d="M497.965,224.514v-4.951L506.8,215.7l8.428,3.859v4.951a.813.813,0,0,1-.813.813H498.777A.813.813,0,0,1,497.965,224.514Z" transform="translate(-388.29 -201.344)" fill="#2f2e41"/>
    <path id="Path_274" data-name="Path 274" d="M518.244,191.692c-1.3-4.159,1.43-8.926,5.465-10.573s8.862-.5,12.266,2.225a20.7,20.7,0,0,1,6.636,11.006,61.656,61.656,0,0,1,1.538,12.956,8.706,8.706,0,1,1-8.344,3.09,10.715,10.715,0,0,0-12.467-16.62C520.9,194.8,517.83,192.143,518.244,191.692Z" transform="translate(-400.136 -180.357)" fill="#2f2e41"/>
    <path id="Path_275" data-name="Path 275" d="M354.9,249.2a42.433,42.433,0,0,1-17.2-3.768,1.817,1.817,0,0,1-1.077-1.667v-14.8a1.83,1.83,0,0,1,1.828-1.828h32.907a1.83,1.83,0,0,1,1.828,1.828v14.8a1.817,1.817,0,0,1-1.077,1.667h0a42.433,42.433,0,0,1-17.2,3.768Z" transform="translate(-292.489 -208.136)" fill="#7be495"/>
    <path id="Path_276" data-name="Path 276" d="M340.794,216.036a1.83,1.83,0,0,1-.71-.143l-26.095-11.009a1.828,1.828,0,0,1,.062-3.393l26.095-9.9a1.822,1.822,0,0,1,1.3,0l25.745,9.9a1.828,1.828,0,0,1,.063,3.387L341.513,215.89a1.831,1.831,0,0,1-.719.146Z" transform="translate(-278.392 -186.956)" fill="#7be495"/>
    <circle id="Ellipse_17" data-name="Ellipse 17" cx="2.438" cy="2.438" r="2.438" transform="translate(44.735 33.43)" fill="#3f3d56"/>
    <path id="Path_277" data-name="Path 277" d="M367.891,219.637l-25.746,11.009a1.625,1.625,0,0,1-1.271,0L314.78,219.641a1.594,1.594,0,0,1-.777-.683,1.624,1.624,0,0,0,.777,2.308l26.095,11.009a1.625,1.625,0,0,0,1.271,0l25.746-11.009a1.624,1.624,0,0,0,.77-2.3,1.6,1.6,0,0,1-.77.68Z" transform="translate(-278.934 -203.276)" opacity="0.2"/>
    <path id="Path_278" data-name="Path 278" d="M344.024,239.837a.406.406,0,0,0,.406-.406V225.837l13.4-4.881a.406.406,0,0,0,.012-.813l-13.4,4.881a.8.8,0,0,0-.582.234.807.807,0,0,0-.242.579v13.594A.406.406,0,0,0,344.024,239.837Z" transform="translate(-296.647 -203.979)" fill="#3f3d56"/>
  </g>
</svg>
