<svg xmlns="http://www.w3.org/2000/svg" xmlns:xlink="http://www.w3.org/1999/xlink" width="311" height="225.029" viewBox="0 0 311 225.029">
  <defs>
    <linearGradient id="linear-gradient" x1="0.5" y1="1" x2="0.5" gradientUnits="objectBoundingBox">
      <stop offset="0" stop-color="gray" stop-opacity="0.251"/>
      <stop offset="0.54" stop-color="gray" stop-opacity="0.122"/>
      <stop offset="1" stop-color="gray" stop-opacity="0.102"/>
    </linearGradient>
    <linearGradient id="linear-gradient-2" x1="0.799" y1="1" x2="0.799" y2="0" xlink:href="#linear-gradient"/>
  </defs>
  <g id="Group_14" data-name="Group 14" transform="translate(0 0)">
    <path id="Path_169" data-name="Path 169" d="M406.084,217.583c-9.833,16.082-8.094,37.926-3.881,55.149,1.41,5.767,3.039,11.849,1.785,18.311-1.534,7.9-7.03,14.13-12.581,17.694-10.122,6.5-21.645,6.37-29.99-.343-7.223-5.8-11.953-15.952-19.32-21.44-12.345-9.184-29.347-3.512-44.137,5.191-10.465,6.154-21.982,13.942-31.6,9.6-6.771-3.054-10.958-11.734-12.9-21.192-.934-4.565-1.488-9.553-3.659-13.028a14.307,14.307,0,0,0-4.922-4.571C228,252.671,205.08,261.428,188.819,249.77c-10.984-7.875-17.181-24.205-19.162-41.689s-.228-36.213,1.958-54.654c1.563-13.1,3.662-27.135,10.479-37.819,7.209-11.3,18.524-16.382,28.335-15.37s18.305,7.307,25.618,14.995c9.141,9.608,17.365,21.9,29.234,24.955,8.074,2.085,16.933-.407,25.535-1.831,14.381-2.382,28.548-1.776,42.609-.966,13.464.776,27.011,1.762,39.54,6.526,8.867,3.371,15.652,10.439,23.92,15.018,5.39,2.985,11.483,3.339,16.5,7.33a25.247,25.247,0,0,1,8.974,25.552C419.951,202.79,411.3,209.05,406.084,217.583Z" transform="translate(-137.637 -88.494)" fill="#56c596" opacity="0.1"/>
    <path id="Path_170" data-name="Path 170" d="M315.937,176.724s-42.43-9.487,11.558-64.994c0,0,23.271,22.057,14.735,49.475a22.541,22.541,0,0,1-25.664,15.649Z" transform="translate(-231.072 -96.761)" fill="#56c596"/>
    <path id="Path_171" data-name="Path 171" d="M316.267,176.724c-.931-.208-41.524-10.424,11.558-64.994,0,0,23.271,22.057,14.735,49.475A22.541,22.541,0,0,1,316.9,176.854Z" transform="translate(-231.401 -96.761)" fill="#fff" opacity="0.4"/>
    <path id="Path_172" data-name="Path 172" d="M357,177.049s22.412-33.762,11-65.309" transform="translate(-271.572 -96.768)" fill="none" stroke="#535461" stroke-miterlimit="10" stroke-width="1"/>
    <path id="Path_173" data-name="Path 173" d="M954.518,221.9s-7.313-29.445,3.769-50.409a45.957,45.957,0,0,0,4.948-28.652,77.321,77.321,0,0,0-3.5-13.7" transform="translate(-695.104 -109.151)" fill="none" stroke="#535461" stroke-miterlimit="10" stroke-width="2"/>
    <path id="Path_174" data-name="Path 174" d="M970.547,66.556c-.153,3.564-7.048,13.619-7.048,13.619S957.49,69.566,957.643,66a6.459,6.459,0,1,1,12.906.554Z" transform="translate(-699.01 -59.82)" fill="#56c596"/>
    <path id="Path_175" data-name="Path 175" d="M1003.589,128.042c-2.065,2.91-13.32,7.6-13.32,7.6s.721-12.172,2.786-15.081a6.459,6.459,0,1,1,10.532,7.478Z" transform="translate(-722.23 -101.112)" fill="#56c596"/>
    <path id="Path_176" data-name="Path 176" d="M991.985,239.642c-3.25,1.468-15.335-.159-15.335-.159s6.768-10.142,10.018-11.612a6.459,6.459,0,1,1,5.318,11.772Z" transform="translate(-712.538 -179.002)" fill="#56c596"/>
    <path id="Path_177" data-name="Path 177" d="M967.532,328.28c-2.956,2-15.142,2.434-15.142,2.434s4.957-11.139,7.913-13.138a6.459,6.459,0,1,1,7.23,10.7Z" transform="translate(-695.273 -242.461)" fill="#56c596"/>
    <path id="Path_178" data-name="Path 178" d="M938.835,153.115c2.448,2.6,14.248,5.675,14.248,5.675s-2.411-11.953-4.859-14.545a6.459,6.459,0,1,0-9.39,8.871Z" transform="translate(-684.371 -118.459)" fill="#56c596"/>
    <path id="Path_179" data-name="Path 179" d="M907.5,252.784c3.114,1.73,15.283,1.153,15.283,1.153s-5.862-10.687-8.98-12.426a6.459,6.459,0,0,0-6.3,11.272Z" transform="translate(-661.069 -188.586)" fill="#56c596"/>
    <path id="Path_180" data-name="Path 180" d="M895.995,357.443c2.774,2.241,14.877,3.72,14.877,3.72s-3.985-11.535-6.759-13.766a6.459,6.459,0,1,0-8.118,10.048Z" transform="translate(-653.432 -263.448)" fill="#56c596"/>
    <path id="Path_181" data-name="Path 181" d="M970.547,66.556c-.153,3.564-7.048,13.619-7.048,13.619S957.49,69.566,957.643,66a6.459,6.459,0,1,1,12.906.554Z" transform="translate(-699.01 -59.82)" fill="#fc6681"/>
    <path id="Path_182" data-name="Path 182" d="M1003.589,128.042c-2.065,2.91-13.32,7.6-13.32,7.6s.721-12.172,2.786-15.081a6.459,6.459,0,1,1,10.532,7.478Z" transform="translate(-722.23 -101.112)" fill="#fc6681"/>
    <path id="Path_183" data-name="Path 183" d="M991.985,239.642c-3.25,1.468-15.335-.159-15.335-.159s6.768-10.142,10.018-11.612a6.459,6.459,0,1,1,5.318,11.772Z" transform="translate(-712.538 -179.002)" fill="#fc6681"/>
    <path id="Path_184" data-name="Path 184" d="M967.532,328.28c-2.956,2-15.142,2.434-15.142,2.434s4.957-11.139,7.913-13.138a6.459,6.459,0,1,1,7.23,10.7Z" transform="translate(-695.273 -242.461)" fill="#fc6681"/>
    <path id="Path_185" data-name="Path 185" d="M938.835,153.115c2.448,2.6,14.248,5.675,14.248,5.675s-2.411-11.953-4.859-14.545a6.459,6.459,0,1,0-9.39,8.871Z" transform="translate(-684.371 -118.459)" fill="#fc6681"/>
    <path id="Path_186" data-name="Path 186" d="M907.5,252.784c3.114,1.73,15.283,1.153,15.283,1.153s-5.862-10.687-8.98-12.426a6.459,6.459,0,0,0-6.3,11.272Z" transform="translate(-661.069 -188.586)" fill="#fc6681"/>
    <path id="Path_187" data-name="Path 187" d="M895.995,357.443c2.774,2.241,14.877,3.72,14.877,3.72s-3.985-11.535-6.759-13.766a6.459,6.459,0,1,0-8.118,10.048Z" transform="translate(-653.432 -263.448)" fill="#fc6681"/>
    <path id="Path_188" data-name="Path 188" d="M867.52,229.9s30.67-25.7,37.487-38.664a184.379,184.379,0,0,1,15.505-24.127" transform="translate(-634.877 -136.172)" fill="none" stroke="#535461" stroke-miterlimit="10" stroke-width="2"/>
    <path id="Path_189" data-name="Path 189" d="M1004.6,260.183,991.34,257.19S994.466,271.187,1004.6,260.183Z" transform="translate(-722.992 -200.276)" fill="#56c596"/>
    <path id="Path_190" data-name="Path 190" d="M962.055,218l7.636,11.437S954.771,230.521,962.055,218Z" transform="translate(-700.726 -172.387)" fill="#56c596"/>
    <path id="Path_191" data-name="Path 191" d="M1025.509,225.038l-12.129-2.128S1021,234.5,1025.509,225.038Z" transform="translate(-738.676 -175.881)" fill="#56c596"/>
    <path id="Path_192" data-name="Path 192" d="M990.372,194.86l5.986,7.826S985.761,203.684,990.372,194.86Z" transform="translate(-721.476 -155.92)" fill="#56c596"/>
    <path id="Path_193" data-name="Path 193" d="M1035.14,189.45s10.338.493,11.535,1.479-1.54,6.771-5.479,5.828S1035.14,189.45,1035.14,189.45Z" transform="translate(-754.161 -152.07)" fill="#56c596"/>
    <path id="Path_194" data-name="Path 194" d="M1011.329,157.44s4.219,7.688,4.06,9.15-6.428,3.106-7.7-2.437S1011.329,157.44,1011.329,157.44Z" transform="translate(-734.48 -129.29)" fill="#56c596"/>
    <circle id="Ellipse_12" data-name="Ellipse 12" cx="2.884" cy="2.884" r="2.884" transform="translate(284.314 34.142) rotate(-72.43)" fill="#ffd037"/>
    <circle id="Ellipse_13" data-name="Ellipse 13" cx="2.884" cy="2.884" r="2.884" transform="translate(279.802 31.201) rotate(-72.43)" fill="#ffd037"/>
    <path id="Path_195" data-name="Path 195" d="M272.16,182.151s12.4-9.228-3.172-41.524c0,0-20.762-25.664,0-49.887,0,0-45.273,1.153-44.408,43.255s22.637,48.157,22.637,48.157Z" transform="translate(-177.329 -81.824)" fill="#56c596"/>
    <path id="Path_196" data-name="Path 196" d="M310.26,182.13s-3.123-22.2-11.486-35.757a29.071,29.071,0,0,1-3.515-8.864,36.292,36.292,0,0,1,10.22-33.946L318.672,90.71" transform="translate(-227.009 -81.803)" fill="none" stroke="#535461" stroke-miterlimit="10" stroke-width="2"/>
    <path id="Path_197" data-name="Path 197" d="M459.821,150.69s2.849,3.726-1.315,9.349-7.6,10.381-6.208,13.876c0,0,6.281-10.445,11.393-10.592S465.444,156.971,459.821,150.69Z" transform="translate(-339.167 -124.487)" fill="#56c596"/>
    <path id="Path_198" data-name="Path 198" d="M460.209,150.69a4.615,4.615,0,0,1,.577,1.168c4.989,5.86,7.645,11.33,2.852,11.468-4.467.127-9.825,8.115-11.108,10.13a4.319,4.319,0,0,0,.153.458s6.281-10.445,11.393-10.592S465.832,156.971,460.209,150.69Z" transform="translate(-339.555 -124.487)" opacity="0.1"/>
    <path id="Path_199" data-name="Path 199" d="M495.9,165.08c0,1.312-.147,2.373-.329,2.373s-.329-1.064-.329-2.373.185-.695.366-.695S495.9,163.771,495.9,165.08Z" transform="translate(-369.949 -134.13)" fill="#ffd037"/>
    <path id="Path_200" data-name="Path 200" d="M498.276,170.364c-1.154.629-2.154,1.006-2.241.848s.776-.8,1.926-1.425.7-.17.784,0S499.426,169.735,498.276,170.364Z" transform="translate(-370.511 -137.848)" fill="#ffd037"/>
    <path id="Path_201" data-name="Path 201" d="M411.224,150.69s-2.849,3.726,1.315,9.349,7.6,10.381,6.208,13.876c0,0-6.281-10.445-11.393-10.592S405.6,156.971,411.224,150.69Z" transform="translate(-305.611 -124.487)" fill="#56c596"/>
    <path id="Path_202" data-name="Path 202" d="M411.214,150.69a4.612,4.612,0,0,0-.577,1.168c-4.989,5.86-7.645,11.33-2.852,11.468,4.467.127,9.825,8.115,11.108,10.13a4.319,4.319,0,0,1-.153.458s-6.289-10.447-11.4-10.589S405.585,156.971,411.214,150.69Z" transform="translate(-305.601 -124.487)" opacity="0.1"/>
    <path id="Path_203" data-name="Path 203" d="M408.62,165.08c0,1.312.147,2.373.329,2.373s.329-1.064.329-2.373-.185-.695-.366-.695S408.62,163.771,408.62,165.08Z" transform="translate(-308.307 -134.13)" fill="#ffd037"/>
    <path id="Path_204" data-name="Path 204" d="M400.592,170.364c1.153.629,2.154,1.006,2.241.848s-.776-.8-1.926-1.425-.7-.17-.784,0S399.442,169.735,400.592,170.364Z" transform="translate(-302.096 -137.848)" fill="#ffd037"/>
    <path id="Path_205" data-name="Path 205" d="M371.75,343.811,346.487,232.653H337.1c-.375-4.248-.626-8.363-.721-12.238,0,0-34.027,7.446-61.162-14.1s-59.037,1.863-59.037,1.863l-.124-.089v.012c-2.215-1.569-32.775-22.513-58.9-1.768-27.123,21.541-61.162,14.1-61.162,14.1-.1,3.925-.349,8.074-.732,12.362H86.55L60.75,344.212s104.878,3.928,141.63.306c1.318,2.786,7,4.879,13.8,4.879,7.647,0,13.867-2.644,14.084-5.94C258.876,345.633,320.436,349.114,371.75,343.811Z" transform="translate(-60.75 -157.589)" fill="url(#linear-gradient)"/>
    <path id="Path_206" data-name="Path 206" d="M97.258,323.207,72,432.306s139.04,5.208,150.237-2.082c0,0,86.316,8.723,154.274,1.693L351.776,323.08Z" transform="translate(-68.756 -247.166)" fill="#e2e2ec"/>
    <path id="Path_207" data-name="Path 207" d="M131.278,336.291,107.73,438.005s129.631,4.856,140.07-1.941c0,0,80.474,8.132,143.833,1.577L368.563,336.17Z" transform="translate(-94.183 -256.481)" opacity="0.1"/>
    <path id="Path_208" data-name="Path 208" d="M375.621,225.459s-33.329,7.29-59.887-13.8-57.805,1.822-57.805,1.822-31.244-22.913-57.8-1.822-59.887,13.8-59.887,13.8c-1.05,42.441-20.828,111.181-20.828,111.181s36.452,9.894,84.623-10.153,53.9,7.03,53.9,7.03,5.727-27.08,53.9-7.03,84.623,10.153,84.623,10.153S376.662,267.9,375.621,225.459Z" transform="translate(-102.495 -161.524)" fill="#f1f2fb"/>
    <path id="Path_209" data-name="Path 209" d="M376.75,647.941s44-9.894,64.305,4.686c0,0,19.528-17.706,64.833-3.9" transform="translate(-285.627 -475.159)" opacity="0.1"/>
    <ellipse id="Ellipse_14" data-name="Ellipse 14" cx="13.801" cy="5.989" rx="13.801" ry="5.989" transform="translate(141.633 178.24)" fill="#e8eaf8"/>
    <path id="Path_210" data-name="Path 210" d="M599.32,239.55s9.894,50.253.259,121.075" transform="translate(-444.016 -187.723)" opacity="0.1"/>
    <path id="Path_211" data-name="Path 211" d="M224.7,310.729s20.725,4.816,38.664,0,50.876-20.569,61.71,0" transform="translate(-177.423 -231.04)" fill="none" stroke="#000" stroke-miterlimit="10" stroke-width="4" opacity="0.1"/>
    <path id="Path_212" data-name="Path 212" d="M224.7,358.2s20.725,4.816,38.664,0,56.782-4.556,61.71,0" transform="translate(-177.423 -269.653)" fill="none" stroke="#000" stroke-miterlimit="10" stroke-width="4" opacity="0.1"/>
    <path id="Path_213" data-name="Path 213" d="M224.7,395.559s20.725,4.816,38.664,0,50.876-20.569,61.71,0" transform="translate(-177.423 -291.408)" fill="none" stroke="#000" stroke-miterlimit="10" stroke-width="4" opacity="0.1"/>
    <path id="Path_214" data-name="Path 214" d="M224.7,443.065s20.725,4.816,38.664,0,56.782-4.556,61.71,0" transform="translate(-177.423 -330.05)" fill="none" stroke="#000" stroke-miterlimit="10" stroke-width="4" opacity="0.1"/>
    <path id="Path_215" data-name="Path 215" d="M727.143,310.729s-20.725,4.816-38.664,0-50.876-20.569-61.71,0" transform="translate(-463.55 -231.04)" fill="none" stroke="#000" stroke-miterlimit="10" stroke-width="4" opacity="0.1"/>
    <path id="Path_216" data-name="Path 216" d="M727.143,358.2s-20.725,4.816-38.664,0-56.782-4.556-61.71,0" transform="translate(-463.55 -269.653)" fill="none" stroke="#000" stroke-miterlimit="10" stroke-width="4" opacity="0.1"/>
    <path id="Path_217" data-name="Path 217" d="M727.143,395.559s-20.725,4.816-38.664,0-50.876-20.569-61.71,0" transform="translate(-463.55 -291.408)" fill="none" stroke="#000" stroke-miterlimit="10" stroke-width="4" opacity="0.1"/>
    <path id="Path_218" data-name="Path 218" d="M727.143,443.065s-20.725,4.816-38.664,0-56.782-4.556-61.71,0" transform="translate(-463.55 -330.05)" fill="none" stroke="#000" stroke-miterlimit="10" stroke-width="4" opacity="0.1"/>
    <path id="Path_219" data-name="Path 219" d="M929.929,757.961a4.921,4.921,0,0,0,1.938-2.385,2.019,2.019,0,0,0-1.352-2.428c-1.243-.386-2.569.314-3.579,1.024a5.273,5.273,0,0,1-3.478,1.37A3.869,3.869,0,0,0,925.1,751.5a1.566,1.566,0,0,0-.456-.822c-.689-.6-1.941-.343-2.765.13-2.627,1.508-3.359,4.418-3.374,7.039a10.966,10.966,0,0,1-.049-2.9,2.763,2.763,0,0,0-1.335-2.566,4.771,4.771,0,0,0-2.036-.389,4.89,4.89,0,0,0-3.3.767,2.3,2.3,0,0,0,.13,3.307,12.719,12.719,0,0,0,3.417,2.235,7.119,7.119,0,0,1,2.442,1.9,1.73,1.73,0,0,1,.182.34h7.4A21.277,21.277,0,0,0,929.929,757.961Z" transform="translate(-665.915 -551.214)" fill="#56c596"/>
    <path id="Path_220" data-name="Path 220" d="M787.724,237.145s.072.415.193,1.153c-.063.115-.127.231-.193.343-2.365,3.979-2.728,9.712-2.506,14.418a47.179,47.179,0,0,0,1.981,11.188,52.3,52.3,0,0,1,2.018,14.534,10.567,10.567,0,0,0,3.31,2.411c.063.193.13.389.187.577a58.943,58.943,0,0,1,2.2,11.134l.744,9.418s5.7,21.316,7.434,25.281c1.234,2.82.963,8.651.7,11.777-.741,2.1-1.644,4.106-2.44,4.325-1.442.409-2.884,3.881-.784,5.626h0a3.349,3.349,0,0,0,.5.346l.084.046.153.078.225.1.115.043.239.081.1.032c.112.032.228.063.352.092a6.3,6.3,0,0,0,4.279-.678,8.632,8.632,0,0,0,4.037-1.941l-.029,1.5h1.73l-.081-3c.311-.349.484-.577.484-.577s.052-1.814.251-3.925L812.9,348.3h1.73l-.467-12.5a2,2,0,0,1,.343-.51c1.442-1.442-1.05-6.093-2.339-6.869.577-3.057,2.777-7.471,5.314-15.935,3.717-12.4-.992-24.537-.992-24.537v-9.516c1.249-.536,1.984-.9,1.984-.9s-1.73-10.162,0-17.348c1.122-4.646,1.413-8.772.476-12.72,1.246-4.291,2.252-7.6,2.252-7.6l1.73-17.844c.441-2.679.738-4.971.929-6.921.032-.242.055-.487.066-.73a36.448,36.448,0,0,0,.04-7.642,12.141,12.141,0,0,0,.1-2.194,8.644,8.644,0,0,0,.046-1.133c.248-.288.49-.577.721-.865a12.423,12.423,0,0,0,1.554-2.48c1.906-3.6,1.961-7.988-.7-11.157-1.638-1.952-2.148-4.054-3.564-6.133-1.295-1.9-1.54-4.184-1.851-6.376a78.047,78.047,0,0,0-1.586-8.094c-.2-.784-1.289-1.266-1.831-1.918-1.047-1.26-4.1-1.217-5.865-1.5-2.959-.47-6.162-.908-8.856.254-1.874.81-3.221,2.284-4.686,3.584-1.577,1.4-4.807,2.073-5.309,3.749-.447.64-.47,1.442.288,2.515a12.158,12.158,0,0,0,2.962,2.543c.138.1.268.2.4.288a10.531,10.531,0,0,0,5.724,11.142q-.043.281-.1.554a33.4,33.4,0,0,1-1.3,4.761c-.32.957-4.023,2.63-6.632,3.7a3.319,3.319,0,0,0-1.058-.73c-1.984-.5-8.674,3.221-9.17,4.461a5.041,5.041,0,0,0,.816,2.509,8.941,8.941,0,0,0,.268,1.626c-.147,2.538.118,6.632,1.4,13.216Zm27.827,2.788c-.092-.176-.187-.355-.288-.539-2.754-5.568-4.389-14.571-.444-19.94.352.037.7.072,1.055.1.234,7.307.1,19.32.1,19.32S815.817,239.273,815.551,239.933Zm-9.83,42.441c.56,2.812,1.217,6.079,1.831,9.049a23.8,23.8,0,0,1-.144,10.473l-2.33-6.99-.542-12.3-.035-.5q.562-.1,1.116-.2Z" transform="translate(-574.892 -134.237)" fill="url(#linear-gradient-2)"/>
    <path id="Path_221" data-name="Path 221" d="M859.678,563.927a23.421,23.421,0,0,1-.141,10.309,13.335,13.335,0,0,1-.577,1.889l.657,26.731.075,3.031a15.253,15.253,0,0,0,1.846.271,8.38,8.38,0,0,0,1.73,0,2.068,2.068,0,0,0,1.355-.577c.271-.332.329-.865-.055-1.641a4.879,4.879,0,0,1-.47-2.754c.023-.265.066-.545.118-.833.577-3.008,2.731-7.356,5.231-15.684,3.659-12.2-.975-24.15-.975-24.15V549.29l-11.953-1.22s.577,3.022,1.37,6.95C858.426,557.788,859.072,561,859.678,563.927Z" transform="translate(-627.049 -407.277)" fill="#fdc2cc"/>
    <path id="Path_222" data-name="Path 222" d="M859.678,563.927a23.421,23.421,0,0,1-.141,10.309,13.335,13.335,0,0,1-.577,1.889l.657,26.731.075,3.031a15.253,15.253,0,0,0,1.846.271,8.38,8.38,0,0,0,1.73,0,2.068,2.068,0,0,0,1.355-.577c.271-.332.329-.865-.055-1.641a4.879,4.879,0,0,1-.47-2.754c.023-.265.066-.545.118-.833.577-3.008,2.731-7.356,5.231-15.684,3.659-12.2-.975-24.15-.975-24.15V549.29l-11.953-1.22s.577,3.022,1.37,6.95C858.426,557.788,859.072,561,859.678,563.927Z" transform="translate(-627.049 -407.277)" opacity="0.1"/>
    <path id="Path_223" data-name="Path 223" d="M809.94,552.3a36.617,36.617,0,0,1,1.981,5.142,58.023,58.023,0,0,1,2.166,10.958l.732,9.271s5.612,20.978,7.319,24.883c1.214,2.777.949,8.515.692,11.6-.1,1.252-.2,2.065-.2,2.065l2.489-3.048,3.261-4,1.488-1.825.326-.4a14.99,14.99,0,0,1-.952-2.546h0a43.523,43.523,0,0,1-1.485-8.175c-.732-7.561-.975-17.809-.975-17.809l-.386-1.153-2.307-6.895-.533-12.111-.2-4.484Z" transform="translate(-593.901 -410.287)" fill="#fdc2cc"/>
    <path id="Path_224" data-name="Path 224" d="M855.657,730.673a17.36,17.36,0,0,0-2.9,5.736c-.776,2.638-2.14,6.693-3.284,7.019-1.707.487-3.414,5.366.975,6.344s8.051-3.9,8.051-3.9.245-8.538,1.707-10-1.22-6.344-2.44-6.831C857.277,728.836,856.452,729.644,855.657,730.673Z" transform="translate(-620.747 -536.037)" fill="#5f5d7e"/>
    <path id="Path_225" data-name="Path 225" d="M851.543,749.05a5.874,5.874,0,0,0,3.426-.311,7.656,7.656,0,0,0,4.793-6.578c.208-2.613.646-6.125,1.537-7.016,1.154-1.153-.288-4.441-1.528-6.012a.661.661,0,0,1,.551-.086c1.22.487,3.9,5.366,2.439,6.831s-1.707,10-1.707,10-3.654,4.879-8.045,3.9a4.037,4.037,0,0,1-1.747-.8C851.352,749,851.445,749.027,851.543,749.05Z" transform="translate(-623.306 -536.048)" opacity="0.1"/>
    <path id="Path_226" data-name="Path 226" d="M886.9,752.4l.47,12.6H885.66l.236-12.593a.484.484,0,0,1,.5-.458h0A.485.485,0,0,1,886.9,752.4Z" transform="translate(-647.786 -552.364)" fill="#5f5d7e"/>
    <path id="Path_227" data-name="Path 227" d="M886.9,752.4l.47,12.6H885.66l.236-12.593a.484.484,0,0,1,.5-.458h0A.485.485,0,0,1,886.9,752.4Z" transform="translate(-647.786 -552.364)" opacity="0.15"/>
    <path id="Path_228" data-name="Path 228" d="M848.046,733.21a17.361,17.361,0,0,0-2.9,5.736c-.776,2.638-2.14,6.693-3.284,7.019-1.707.487-3.414,5.366.975,6.344s8.051-3.91,8.051-3.91.245-8.539,1.707-10-1.22-6.344-2.44-6.831C849.661,731.384,848.842,732.18,848.046,733.21Z" transform="translate(-615.331 -537.841)" fill="#5f5d7e"/>
    <path id="Path_229" data-name="Path 229" d="M843.925,751.57a5.874,5.874,0,0,0,3.426-.311,7.656,7.656,0,0,0,4.793-6.578c.208-2.613.646-6.125,1.537-7.016,1.153-1.153-.288-4.441-1.528-6.012a.66.66,0,0,1,.551-.086c1.22.487,3.9,5.366,2.44,6.831s-1.7,10-1.7,10-3.659,4.879-8.051,3.9a4.037,4.037,0,0,1-1.747-.8A2.915,2.915,0,0,0,843.925,751.57Z" transform="translate(-617.883 -537.841)" opacity="0.1"/>
    <path id="Path_230" data-name="Path 230" d="M879.249,754.888l.47,12.6H878l.236-12.593a.484.484,0,0,1,.5-.458h0a.484.484,0,0,1,.51.45Z" transform="translate(-642.335 -554.135)" fill="#5f5d7e"/>
    <path id="Path_231" data-name="Path 231" d="M879.249,754.888l.47,12.6H878l.236-12.593a.484.484,0,0,1,.5-.458h0a.484.484,0,0,1,.51.45Z" transform="translate(-642.335 -554.135)" opacity="0.15"/>
    <path id="Path_232" data-name="Path 232" d="M810.79,246.587l9.758,15.37,11.465,1.465s7.074-13.9,6.831-14.637-3.9-2.194-7.319-4.879.732-13.9.732-13.9l-11.22.975c.043.15.086.288.118.456a14.556,14.556,0,0,1-.055,5.845,32.861,32.861,0,0,1-1.286,4.677C819.328,243.415,810.79,246.587,810.79,246.587Z" transform="translate(-594.506 -180.927)" fill="#fdc2cc"/>
    <path id="Path_233" data-name="Path 233" d="M856.47,548.07s.577,3.022,1.37,6.95a55.978,55.978,0,0,0,10.586-3.38v-2.35Z" transform="translate(-627.013 -407.277)" opacity="0.1"/>
    <path id="Path_234" data-name="Path 234" d="M809.94,552.3a36.617,36.617,0,0,1,1.981,5.142c3.394,1.531,7.616,1.488,11.633.8l-.2-4.484Z" transform="translate(-593.901 -410.287)" opacity="0.1"/>
    <path id="Path_235" data-name="Path 235" d="M788.881,322.228c-2.327,3.919-2.685,9.556-2.465,14.2a46.426,46.426,0,0,0,1.949,11.01,51.472,51.472,0,0,1,1.99,14.306c8.293,9.026,28.784-1.22,28.784-1.22s-1.707-10,0-17.077c1.188-4.919,1.442-9.254.236-13.406a21.132,21.132,0,0,0-2.431-5.378c-.323-.513-.637-1.081-.94-1.69-2.826-5.715-4.458-15.1.087-20.284a9.476,9.476,0,0,1,1.586-1.442,16.3,16.3,0,0,0,6.529-8.752,11.767,11.767,0,0,0,.288-5.153c-.487-2.685-7.319-5.124-7.319-5.124.245,8.051-10,14.88-10,14.88s-11.711-15.125-13.66-15.612-8.539,3.172-9.026,4.392,5.366,10.246,5.366,10.246S793.517,314.422,788.881,322.228Z" transform="translate(-575.768 -217.537)" fill="#d39999"/>
    <path id="Path_236" data-name="Path 236" d="M894.686,317.015a16.3,16.3,0,0,0,6.529-8.752c-.19-4.037-1.153-4.663-1.153-4.663s-8.06,7.8-7.327,10.5a27.888,27.888,0,0,1,.366,4.372,9.481,9.481,0,0,1,1.586-1.453Z" transform="translate(-652.787 -233.303)" opacity="0.1"/>
    <path id="Path_237" data-name="Path 237" d="M851.638,459.368c1.707,5.124,10.246-3.9,10.491-7.806.156-2.5,2.91-12.287,4.87-19.015a21.134,21.134,0,0,0-2.431-5.378c-.323-.513-.637-1.081-.94-1.69-.926,2.275-4.643,11.6-4.426,14.375.245,3.172-1.465,7.806-1.465,7.806S849.93,454.244,851.638,459.368Z" transform="translate(-623.401 -320.037)" opacity="0.1"/>
    <path id="Path_238" data-name="Path 238" d="M872.355,303.59s2.685,1.707,0,18.052l-1.707,17.564s-6.586,21.711-6.831,25.615-8.781,12.927-10.491,7.806,6.1-11.71,6.1-11.71,1.707-4.634,1.465-7.806,4.634-14.88,4.634-14.88.245-21.466-.487-24.15S872.355,303.59,872.355,303.59Z" transform="translate(-624.602 -233.296)" fill="#fdc2cc"/>
    <path id="Path_239" data-name="Path 239" d="M791.241,296.82s-3.172.732,0,17.077l1.952,17.809s4.392,25.615,4.147,28.548,9.516,10.491,10.246,6.344-4.879-10.978-4.879-10.978-2.445-5.375-2.445-15.378l-.487-8.051-3.411-29.027Z" transform="translate(-579.591 -228.478)" opacity="0.1"/>
    <path id="Path_240" data-name="Path 240" d="M789.521,296.82s-3.172.732,0,17.077l1.952,17.809s4.392,25.615,4.147,28.548,9.516,10.491,10.245,6.344-4.879-10.978-4.879-10.978-2.44-5.366-2.44-15.37l-.487-8.051-3.408-29.035Z" transform="translate(-578.367 -228.478)" fill="#fdc2cc"/>
    <path id="Path_241" data-name="Path 241" d="M787.351,295.374s-1.465,7.806,8.781,10.491-1.22-9.274-1.22-9.274S791.011,290.74,787.351,295.374Z" transform="translate(-577.774 -226.179)" opacity="0.1"/>
    <path id="Path_242" data-name="Path 242" d="M788.192,294.531s-1.462,7.8,8.784,10.488-1.22-9.271-1.22-9.271S791.851,289.894,788.192,294.531Z" transform="translate(-578.373 -225.578)" fill="#d39999"/>
    <path id="Path_243" data-name="Path 243" d="M891.552,295.374s1.465,7.806-8.781,10.491,1.217-9.274,1.217-9.274S887.881,290.74,891.552,295.374Z" transform="translate(-642.7 -226.179)" opacity="0.1"/>
    <path id="Path_244" data-name="Path 244" d="M890.691,294.531s1.476,7.8-8.781,10.488,1.22-9.271,1.22-9.271S887.032,289.894,890.691,294.531Z" transform="translate(-642.084 -225.578)" fill="#d39999"/>
    <path id="Path_245" data-name="Path 245" d="M846.55,238.468c1.347.392,2.855-2.763,4.447-2.763,1.687,0,3.276,3.377,4.683,2.662a42.273,42.273,0,0,1,1.782-6.687l-10.857.957A14.538,14.538,0,0,1,846.55,238.468Z" transform="translate(-619.954 -182.122)" opacity="0.1"/>
    <circle id="Ellipse_15" data-name="Ellipse 15" cx="10.367" cy="10.367" r="10.367" transform="translate(220.921 36.143)" fill="#fdc2cc"/>
    <path id="Path_246" data-name="Path 246" d="M814.354,181.131a12.266,12.266,0,0,0,2.915,2.5,32.026,32.026,0,0,1,3.7,3.094,10.929,10.929,0,0,1,2.068,2.561,11.691,11.691,0,0,1,1.029,4.96L825.07,211.7a11.141,11.141,0,0,1-.161,3.46,11.82,11.82,0,0,1-1.249,2.734,23.978,23.978,0,0,1-4.836,6.632c-.715.62-1.586,1.422-1.208,2.235.306.655,1.246.865,2.053.96,3.388.456,7.143.845,9.995-.807a16.973,16.973,0,0,1,3.172-1.9c1.678-.533,3.53.023,5.317.02a16.691,16.691,0,0,0,5.479-1.254,1.964,1.964,0,0,0,.9-.508,1.5,1.5,0,0,0,.257-.689,8.751,8.751,0,0,0,.084-4.271c-.476-1.5-1.73-2.8-1.871-4.354-.185-2.157,1.805-3.913,3.235-5.687,3.045-3.775,3.723-9.21.6-12.933-1.612-1.921-2.117-3.991-3.509-6.035-1.275-1.871-1.517-4.118-1.823-6.275a76.873,76.873,0,0,0-1.563-7.967c-.193-.773-1.269-1.246-1.8-1.889-1.032-1.24-4.037-1.2-5.767-1.474-2.912-.461-6.056-.894-8.717.251a18.024,18.024,0,0,0-4.614,3.527C817,177.3,812.042,177.869,814.354,181.131Z" transform="translate(-596.614 -139.096)" opacity="0.1"/>
    <path id="Path_247" data-name="Path 247" d="M815.2,179.441a12.267,12.267,0,0,0,2.915,2.5,32.035,32.035,0,0,1,3.7,3.1,10.929,10.929,0,0,1,2.068,2.561,11.693,11.693,0,0,1,1.029,4.96l1.015,17.449a11.139,11.139,0,0,1-.162,3.46,11.822,11.822,0,0,1-1.249,2.734,23.977,23.977,0,0,1-4.836,6.632c-.715.62-1.586,1.422-1.208,2.235.306.655,1.246.865,2.053.96,3.388.456,7.143.845,9.995-.807a16.972,16.972,0,0,1,3.172-1.9c1.678-.533,3.53.023,5.317.02a16.69,16.69,0,0,0,5.479-1.254,1.963,1.963,0,0,0,.9-.508,1.5,1.5,0,0,0,.257-.689,8.749,8.749,0,0,0,.084-4.271c-.476-1.5-1.73-2.8-1.872-4.354-.185-2.157,1.805-3.913,3.235-5.687,3.045-3.775,3.723-9.21.6-12.933-1.612-1.92-2.117-3.991-3.509-6.035-1.275-1.871-1.517-4.118-1.823-6.275a76.841,76.841,0,0,0-1.563-7.967c-.193-.773-1.269-1.246-1.8-1.889-1.032-1.24-4.037-1.2-5.767-1.474-2.912-.461-6.056-.894-8.717.251a18.023,18.023,0,0,0-4.614,3.527C817.829,175.608,812.889,176.179,815.2,179.441Z" transform="translate(-597.216 -137.894)" fill="#865a61"/>
  </g>
</svg>
