<svg xmlns="http://www.w3.org/2000/svg" width="396.932" height="178" viewBox="0 0 396.932 178"><path d="M259.805,38.951a119.12,119.12,0,0,0-160.14,0,117.581,117.581,0,0,1,16.62-16.213A108.158,108.158,0,0,1,135.49,10.473a100.887,100.887,0,0,1,21.31-7.76,98.422,98.422,0,0,1,45.866,0,100.9,100.9,0,0,1,21.309,7.76,108.194,108.194,0,0,1,19.207,12.263,117.668,117.668,0,0,1,16.623,16.213Z" transform="translate(18.782 -0.004)" fill="#7be495"/><path d="M30.961,78.183l-4.212-9.711h8.423l-4.212,9.711Z" transform="translate(167.555 44.257)" fill="#205072"/><path d="M20.284,27.644H10.763L0,2.826a7.382,7.382,0,0,0,3.26.751A6.862,6.862,0,0,0,9.429,0a6.864,6.864,0,0,0,6.095,3.577A6.864,6.864,0,0,0,21.619,0a6.862,6.862,0,0,0,6.169,3.577,7.386,7.386,0,0,0,3.26-.75L20.284,27.643Z" transform="translate(182.992 83.82)" fill="#cde0c9"/><path d="M0,55.3V3.108H.03C.435,1.7,4.848.512,11,0V55.3c0,2.657-2.461,4.813-5.5,4.813S0,57.953,0,55.3Z" transform="translate(180.754 26.023)" fill="#7be495"/><path d="M0,55.315V.175C1.731.062,3.579,0,5.5,0S9.264.062,11,.175V55.316a5.293,5.293,0,0,1-5.5,5.06A5.293,5.293,0,0,1,0,55.315Z" transform="translate(193.018 25.753)" fill="#7be495"/><path d="M0,55.3V0C6.148.512,10.561,1.7,10.965,3.108H11V55.294c0,2.657-2.461,4.813-5.5,4.813S0,57.953,0,55.3Z" transform="translate(205.282 26.023)" fill="#7be495"/><path d="M122.727,385.407c39.767,0,116.879,11.9,153.632,80.66-48.01-38.346-73.189-62.449-134.348-68.947,0-.992-.8,13.089,5.549,33.9C138.289,422.432,131.667,417.142,122.727,385.407Z" transform="translate(-83.757 -304.594)" fill="#205072"/><path d="M153.712,402.294c47.763,2.458,88.672,18.764,140.5,73.53-48.01-38.346-73.189-62.45-134.348-68.947,0-.992-.8,13.089,5.549,33.9C158.609,427.322,153.016,410.859,153.712,402.294Z" transform="translate(-101.605 -314.351)" fill="#cde0c9"/><path d="M230.251,261.68c-2.284,18.163-.5,41.739.28,45.849s-.754,5.567,7.234,7.824c78.669,22.57,101.795,73.768,101.795,73.768S318.694,308.807,230.251,261.68Z" transform="translate(-145.162 -233.106)" fill="#205072"/><path d="M231.783,261.68c2.868,21.462,7.389,31.185,9.938,37.782s5.3,6.7,5.333,6.713c69.179,21.667,94.038,82.946,94.038,82.946S320.226,308.807,231.783,261.68Z" transform="translate(-146.695 -233.106)" fill="#cde0c9"/><path d="M88.534,514.095c82.139-16.529,123.4,2.034,168.863,23.14C200.982,480.783,132.214,489.683,88.534,514.095Z" transform="translate(-64.025 -367.974)" fill="#205072"/><path d="M88.534,514.095c81.376-27.208,131.805.253,168.863,23.14C200.982,480.783,132.214,489.683,88.534,514.095Z" transform="translate(-64.025 -367.974)" fill="#cde0c9"/><path d="M30.577,570.651C70.07,559.36,182.411,556.26,223.1,569.223a55.3,55.3,0,0,0,6.493.914c-63.087-43.517-168.3-33.144-179.8-25.219S31.805,564.441,30.577,570.651Z" transform="translate(-30.577 -392.651)" fill="#cde0c9"/><path d="M30.577,587.063c39.493-11.291,151.834-14.391,192.525-1.428a55.388,55.388,0,0,0,6.493.914c-68.55-33.886-190.14-16.278-193.426-11.473A35.325,35.325,0,0,0,30.577,587.063Z" transform="translate(-30.577 -409.063)" fill="#205072"/><g transform="translate(204.33 80.813)"><path d="M276.359,385.407c-39.767,0-116.879,11.9-153.632,80.66,48.01-38.346,73.189-62.449,134.348-68.947,0-.992.8,13.089-5.549,33.9C260.8,422.432,267.42,417.142,276.359,385.407Z" transform="translate(-122.727 -385.407)" fill="#205072"/><path d="M299.081,402.294c-47.763,2.458-88.672,18.764-140.5,73.53,48.01-38.346,73.189-62.45,134.348-68.947,0-.992.8,13.089-5.549,33.9C294.183,427.322,299.776,410.859,299.081,402.294Z" transform="translate(-158.585 -395.164)" fill="#cde0c9"/></g><g transform="translate(202.535 28.574)"><path d="M338.438,261.68c2.284,18.163.5,41.739-.28,45.849s.754,5.567-7.234,7.824c-78.669,22.57-101.8,73.768-101.8,73.768S249.994,308.807,338.438,261.68Z" transform="translate(-229.129 -261.68)" fill="#205072"/><path d="M341.092,261.68c-2.868,21.462-7.389,31.185-9.938,37.782s-5.269,6.719-5.333,6.713c-69.18,21.667-94.038,82.946-94.038,82.946S252.648,308.807,341.092,261.68Z" transform="translate(-231.783 -261.68)" fill="#cde0c9"/></g><g transform="translate(203.559 127.128)"><path d="M257.4,514.095c-82.139-16.529-123.4,2.034-168.863,23.14C144.949,480.783,213.717,489.683,257.4,514.095Z" transform="translate(-88.534 -495.102)" fill="#205072"/><path d="M257.4,514.095c-81.375-27.208-131.8.253-168.863,23.14C144.949,480.783,213.717,489.683,257.4,514.095Z" transform="translate(-88.534 -495.102)" fill="#cde0c9"/></g><g transform="translate(197.914 145.161)"><path d="M229.6,570.652c-39.493-11.29-151.834-14.391-192.525-1.428a55.3,55.3,0,0,1-6.494.914c63.087-43.517,168.3-33.144,179.8-25.218S228.367,564.442,229.6,570.652Z" transform="translate(-30.577 -537.812)" fill="#cde0c9"/><path d="M229.6,587.063c-39.493-11.29-151.834-14.391-192.525-1.427a55.283,55.283,0,0,1-6.494.914C99.128,552.663,220.717,570.272,224,575.078A35.271,35.271,0,0,1,229.6,587.063Z" transform="translate(-30.577 -554.224)" fill="#205072"/></g></svg>