<svg xmlns="http://www.w3.org/2000/svg" xmlns:xlink="http://www.w3.org/1999/xlink" width="321.187" height="243.462"
     viewBox="0 0 321.187 243.462">
    <defs>
        <linearGradient id="linear-gradient" x1="0.5" y1="1" x2="0.5" gradientUnits="objectBoundingBox">
            <stop offset="0" stop-color="gray" stop-opacity="0.251"/>
            <stop offset="0.54" stop-color="gray" stop-opacity="0.122"/>
            <stop offset="1" stop-color="gray" stop-opacity="0.102"/>
        </linearGradient>
        <linearGradient id="linear-gradient-2" x1="2.581" y1="1" x2="2.581" y2="0" xlink:href="#linear-gradient"/>
        <linearGradient id="linear-gradient-3" y1="1" y2="0" xlink:href="#linear-gradient"/>
    </defs>
    <g id="Group_23" data-name="Group 23" transform="translate(0 0.006)">
        <path id="Path_279" data-name="Path 279"
              d="M345.19,156.022c-11.292,15.495-7.566,37.612-1.038,55.232,2.186,5.9,4.67,12.137,3.536,18.555-1.384,7.845-7.892,13.724-14.655,16.925a38.835,38.835,0,0,1-37.926-2.449c-9.518-6.346-16.219-16.891-25.922-22.933-16.239-10.11-37.32-5.593-55.394,2.126C201,228.938,187,235.97,174.538,230.928c-8.768-3.548-14.673-12.579-17.779-22.232-1.5-4.661-2.55-9.72-5.538-13.369a20.444,20.444,0,0,0-6.539-4.944c-22.033-11.537-50.375-4.326-71.736-17.2-14.422-8.693-23.4-25.564-27.127-43.3S43.012,93.426,44.5,75.024c1.056-13.078,2.726-27.052,10.588-37.329C63.4,26.83,77.339,22.512,89.8,24.214s23.637,8.624,33.412,16.888C135.441,51.41,146.69,64.352,161.9,68.266c10.358,2.665,21.361.779,32.129-.055,18-1.39,35.933.211,53.758,2.019,17.064,1.731,34.246,3.663,50.407,9.337,11.436,4.015,20.5,11.6,31.269,16.79,7.018,3.38,14.739,4.165,21.344,8.532,8.151,5.379,15.518,14.909,13.127,26.345C361.671,142.1,351.189,147.8,345.19,156.022Z"
              transform="translate(-43.2 -23.86)" fill="#56c596" opacity="0.1"/>
        <g id="Group_20" data-name="Group 20" transform="translate(227.796 103.199)" opacity="0.5">
            <path id="Path_280" data-name="Path 280"
                  d="M898.19,525.691s.952-28.2,16.207-44.13a42.742,42.742,0,0,0,11.722-24.367,71.9,71.9,0,0,0,.358-13.144"
                  transform="translate(-879.378 -426.056)" fill="none" stroke="#535461" stroke-miterlimit="10"
                  stroke-width="2"/>
            <path id="Path_281" data-name="Path 281"
                  d="M1000.665,389.567c-1.044,3.15-9.772,10.384-9.772,10.384s-2.674-11.021-1.63-14.168a6.006,6.006,0,0,1,11.4,3.781Z"
                  transform="translate(-944.011 -381.666)" fill="#56c596"/>
            <path id="Path_282" data-name="Path 282"
                  d="M1007.845,453.608c-2.6,2.077-13.845,3.409-13.845,3.409s3.75-10.7,6.346-12.778a6.005,6.005,0,1,1,7.5,9.368Z"
                  transform="translate(-947.554 -425.141)" fill="#56c596"/>
            <path id="Path_283" data-name="Path 283"
                  d="M972.585,553.751c-3.282.485-13.675-4.038-13.675-4.038s8.636-7.349,11.918-7.834a6.006,6.006,0,0,1,1.757,11.883Z"
                  transform="translate(-922.585 -495.621)" fill="#56c596"/>
            <path id="Path_284" data-name="Path 284"
                  d="M926.852,626.039c-3.153,1.033-14.162-1.679-14.162-1.679s7.271-8.7,10.424-9.735a6.007,6.007,0,0,1,3.75,11.413Z"
                  transform="translate(-889.696 -547.218)" fill="#56c596"/>
            <path id="Path_285" data-name="Path 285"
                  d="M950.143,458.867c1.532,2.942,11.309,8.7,11.309,8.7s.888-11.3-.643-14.249a6.005,6.005,0,0,0-10.655,5.544Z"
                  transform="translate(-915.871 -430.351)" fill="#56c596"/>
            <path id="Path_286" data-name="Path 286"
                  d="M896.46,539.8c2.342,2.351,13.383,4.924,13.383,4.924s-2.535-11.053-4.875-13.4a6.005,6.005,0,0,0-8.509,8.477Z"
                  transform="translate(-876.902 -486.898)" fill="#56c596"/>
            <path id="Path_287" data-name="Path 287"
                  d="M859.508,630.324c1.909,2.711,12.359,7.116,12.359,7.116s-.629-11.321-2.541-14.035a6.005,6.005,0,1,0-9.807,6.922Z"
                  transform="translate(-850.997 -551.753)" fill="#56c596"/>
            <path id="Path_288" data-name="Path 288"
                  d="M875.413,576.49s-8.653-12.587-7.136-24.43a23.144,23.144,0,0,0-2.734-14.381,38.942,38.942,0,0,0-4.073-5.838"
                  transform="translate(-853.25 -488.525)" fill="none" stroke="#535461" stroke-miterlimit="10"
                  stroke-width="2"/>
            <path id="Path_289" data-name="Path 289"
                  d="M848.992,500.415c.557,1.708-.914,7.667-.914,7.667s-4.71-3.94-5.267-5.645a3.251,3.251,0,0,1,6.181-2.019Z"
                  transform="translate(-839.858 -464.57)" fill="#56c596"/>
            <path id="Path_290" data-name="Path 290"
                  d="M877.374,522.852c-.459,1.731-4.935,5.939-4.935,5.939s-1.811-5.867-1.353-7.6a3.252,3.252,0,1,1,6.288,1.664Z"
                  transform="translate(-860.039 -479.222)" fill="#56c596"/>
            <path id="Path_291" data-name="Path 291"
                  d="M892.707,575.486c-1.272,1.266-7.257,2.636-7.257,2.636s1.4-5.979,2.671-7.245a3.253,3.253,0,0,1,4.586,4.615Z"
                  transform="translate(-870.313 -515.629)" fill="#56c596"/>
            <path id="Path_292" data-name="Path 292"
                  d="M897.721,622.077C896.679,623.539,891,625.9,891,625.9s.366-6.129,1.408-7.592a3.252,3.252,0,0,1,5.3,3.767Z"
                  transform="translate(-874.262 -549.076)" fill="#56c596"/>
            <path id="Path_293" data-name="Path 293"
                  d="M849.341,546.774c1.612.79,7.719.156,7.719.156s-3.251-5.209-4.863-6a3.251,3.251,0,1,0-2.855,5.841Z"
                  transform="translate(-843.321 -494.76)" fill="#56c596"/>
            <path id="Path_294" data-name="Path 294"
                  d="M852.013,599.325c1.777.271,7.413-2.16,7.413-2.16s-4.661-4-6.435-4.257a3.252,3.252,0,1,0-.978,6.429Z"
                  transform="translate(-844.554 -531.952)" fill="#56c596"/>
            <path id="Path_295" data-name="Path 295"
                  d="M865.274,650.71c1.7.577,7.672-.865,7.672-.865s-3.917-4.727-5.622-5.3a3.252,3.252,0,1,0-2.051,6.172Z"
                  transform="translate(-854.372 -568.606)" fill="#56c596"/>
            <path id="Path_296" data-name="Path 296"
                  d="M848.992,500.415c.557,1.708-.914,7.667-.914,7.667s-4.71-3.94-5.267-5.645a3.251,3.251,0,0,1,6.181-2.019Z"
                  transform="translate(-839.858 -464.57)" fill="#fff" opacity="0.5"/>
            <path id="Path_297" data-name="Path 297"
                  d="M877.374,522.852c-.459,1.731-4.935,5.939-4.935,5.939s-1.811-5.867-1.353-7.6a3.252,3.252,0,1,1,6.288,1.664Z"
                  transform="translate(-860.039 -479.222)" fill="#fff" opacity="0.5"/>
            <path id="Path_298" data-name="Path 298"
                  d="M892.707,575.486c-1.272,1.266-7.257,2.636-7.257,2.636s1.4-5.979,2.671-7.245a3.253,3.253,0,0,1,4.586,4.615Z"
                  transform="translate(-870.313 -515.629)" fill="#fff" opacity="0.5"/>
            <path id="Path_299" data-name="Path 299"
                  d="M897.721,622.077C896.679,623.539,891,625.9,891,625.9s.366-6.129,1.408-7.592a3.252,3.252,0,0,1,5.3,3.767Z"
                  transform="translate(-874.262 -549.076)" fill="#fff" opacity="0.5"/>
            <path id="Path_300" data-name="Path 300"
                  d="M849.341,546.774c1.612.79,7.719.156,7.719.156s-3.251-5.209-4.863-6a3.251,3.251,0,1,0-2.855,5.841Z"
                  transform="translate(-843.321 -494.76)" fill="#fff" opacity="0.5"/>
            <path id="Path_301" data-name="Path 301"
                  d="M852.013,599.325c1.777.271,7.413-2.16,7.413-2.16s-4.661-4-6.435-4.257a3.252,3.252,0,1,0-.978,6.429Z"
                  transform="translate(-844.554 -531.952)" fill="#fff" opacity="0.5"/>
            <path id="Path_302" data-name="Path 302"
                  d="M865.274,650.71c1.7.577,7.672-.865,7.672-.865s-3.917-4.727-5.622-5.3a3.252,3.252,0,1,0-2.051,6.172Z"
                  transform="translate(-854.372 -568.606)" fill="#fff" opacity="0.5"/>
            <path id="Path_303" data-name="Path 303" d="M795.922,688.514h24.612l6.155-37.534H789.77Z"
                  transform="translate(-789.77 -566.419)" fill="#474059"/>
            <path id="Path_304" data-name="Path 304"
                  d="M794.48,650.98l5.749,35.073h20.709l-.4,2.46H795.922L789.77,650.98Z"
                  transform="translate(-789.77 -566.419)" opacity="0.1"/>
        </g>
        <rect id="Rectangle_33" data-name="Rectangle 33" width="180.559" height="217.854"
              transform="translate(58.056 11.328)" fill="url(#linear-gradient)"/>
        <rect id="Rectangle_34" data-name="Rectangle 34" width="175.944" height="212.287"
              transform="translate(60.363 14.115)" fill="#fff"/>
        <rect id="Rectangle_35" data-name="Rectangle 35" width="70.955" height="3.461"
              transform="translate(128.722 38.055)" fill="#c0bccf"/>
        <rect id="Rectangle_36" data-name="Rectangle 36" width="70.955" height="3.461"
              transform="translate(128.722 49.015)" fill="#c0bccf"/>
        <rect id="Rectangle_37" data-name="Rectangle 37" width="36.919" height="3.461"
              transform="translate(145.74 59.976)" fill="#56c596"/>
        <rect id="Rectangle_38" data-name="Rectangle 38" width="70.955" height="3.461"
              transform="translate(128.722 107.567)" fill="#c0bccf" opacity="0.5"/>
        <rect id="Rectangle_39" data-name="Rectangle 39" width="70.955" height="3.461"
              transform="translate(128.722 118.528)" fill="#c0bccf" opacity="0.5"/>
        <rect id="Rectangle_40" data-name="Rectangle 40" width="36.919" height="3.461"
              transform="translate(145.74 129.488)" fill="#56c596" opacity="0.5"/>
        <rect id="Rectangle_41" data-name="Rectangle 41" width="70.955" height="3.461"
              transform="translate(128.722 177.079)" fill="#c0bccf" opacity="0.5"/>
        <rect id="Rectangle_42" data-name="Rectangle 42" width="70.955" height="3.461"
              transform="translate(128.722 188.04)" fill="#c0bccf" opacity="0.5"/>
        <rect id="Rectangle_43" data-name="Rectangle 43" width="36.919" height="3.461" transform="translate(145.74 199)"
              fill="#56c596" opacity="0.5"/>
        <path id="Path_330" data-name="Path 330"
              d="M619.852,404.985h.043c.063,1.932.337,3.68.865,4.165,1.258,1.154,6.472-1.154,6.115-2.55-.072-.288-.193-.761-.346-1.359,1.408-.176,2.61-.577,3.089-1.4l.906,2.792.063.2h.069c.6,5.659,1.95,17.41,3.031,18.985,1.442,2.085,3.1,11.122,3.1,11.122l3.1,18.538s1.194,10.672,1.909,11.826a1.341,1.341,0,0,0,.784.407,11.361,11.361,0,0,1-1.731,3.53c-1.442,1.621-3.34,4.866-5.01,4.635s-2.146,3.245.955,3.706a25.631,25.631,0,0,0,6.556-.384,2.346,2.346,0,0,0,2.27,2.238c3.1.464,9.541-.926,9.541-.926s5.48-2.307,5.725-3.94c.173-1.183-.666-5.93-1.134-8.419.865-1.387-.058-13.36-.058-13.36l-1.67-22.939s.955-12.743,0-15.062c-.6-1.442-.819-8.076-.9-12.821l1.154.075a2.127,2.127,0,0,0,.179-.251l.288.02a3.832,3.832,0,0,0,.239-4.171c-.885-1.9-.718-10.45-.577-14.71h0l.17-2.019a.576.576,0,0,0,.141-.219,21.156,21.156,0,0,0,6.441-1.95,6.536,6.536,0,0,0,1.69-1.027c1.194-1.154.476-8.111-1.909-18.538s-4.531-9.5-4.531-9.5-5.725-.464-8.35-3.94-4.387-3.429-4.387-3.429h0c-.066-.456-.112-.885-.144-1.286,0-.15-.023-.288-.032-.438a7.626,7.626,0,0,0,1.984-3.008,14.912,14.912,0,0,0,1.71-.747,2.036,2.036,0,0,0,.355-.329,2.916,2.916,0,0,0,.92-1.814,7.422,7.422,0,0,0-.107-2.276,5.515,5.515,0,0,0-3.64-5q-3.784-1.987-7.589-3.934a4.188,4.188,0,0,0-1.624-.577,4.328,4.328,0,0,0-2.746,1.3,11.707,11.707,0,0,0-.937.822,5.26,5.26,0,0,0-.689.741,7.109,7.109,0,0,0-.943,5.3.727.727,0,0,0,.77.649,7.436,7.436,0,0,0-.793,3.346,7.586,7.586,0,0,0,3.522,6.371c0,.161,0,.32.014.473a16.935,16.935,0,0,1-.058,1.774s-6.346,3.429-7.058,5.05-3.34,2.78-3.34,2.78-5.01,2.55-5.01,11.586l-2.625,12.743-.476,24.329s.329-.288.865-.7c-.017.161-.032.329-.046.5a27.462,27.462,0,0,0-.072,2.795ZM651.9,467.953c-.1.372-.242.865-.424,1.442-.081-.479-.161-.952-.242-1.4C651.439,467.973,651.661,467.962,651.9,467.953Z"
              transform="translate(-453.02 -238.073)" fill="url(#linear-gradient-2)"/>
        <path id="Path_331" data-name="Path 331"
              d="M681.992,808.809s-.92,4.136-2.307,5.743-3.2,4.826-4.808,4.595-2.068,3.216.92,3.675,9.175-.917,9.175-.917,5.284-2.307,5.512-3.905-1.379-9.879-1.379-9.879Z"
              transform="translate(-491.779 -581.917)" fill="#53526b"/>
        <path id="Path_332" data-name="Path 332"
              d="M681.992,808.809s-.92,4.136-2.307,5.743-3.2,4.826-4.808,4.595-2.068,3.216.92,3.675,9.175-.917,9.175-.917,5.284-2.307,5.512-3.905-1.379-9.879-1.379-9.879Z"
              transform="translate(-491.779 -581.917)" opacity="0.05"/>
        <path id="Path_333" data-name="Path 333"
              d="M711.451,815.172s-.92,4.136-2.307,5.743-3.213,4.826-4.814,4.595-2.068,3.216.92,3.675,9.19-.92,9.19-.92,5.284-2.307,5.512-3.905-1.379-9.879-1.379-9.879Z"
              transform="translate(-512.737 -586.443)" fill="#53526b"/>
        <path id="Path_334" data-name="Path 334"
              d="M659.66,598.67s1.837,19.755,3.216,21.823,2.985,11.027,2.985,11.027l2.985,18.376s1.154,10.568,1.837,11.716,9.21.655,9.21.655l-5.3-60.842Z"
              transform="translate(-481.852 -432.88)" fill="#5f5d7e"/>
        <path id="Path_335" data-name="Path 335"
              d="M659.66,598.67s1.837,19.755,3.216,21.823,2.985,11.027,2.985,11.027l2.985,18.376s1.154,10.568,1.837,11.716,9.21.655,9.21.655l-5.3-60.842Z"
              transform="translate(-481.852 -432.88)" opacity="0.05"/>
        <path id="Path_336" data-name="Path 336"
              d="M646.92,566l.6,1.907,3.245,10.3.063.2h.017c.436.1,9.631,2.212,11.615,2.861a2.8,2.8,0,0,1,.314.118c.92.459,2.068,17,2.068,17S665.533,614,666,615.149s2.307,24.805,3.447,24.119,9.417,0,9.417,0c.92-.92,0-13.323,0-13.323l-1.633-22.737s.92-12.633,0-14.932-.92-17.687-.92-17.687l-18.8-2.939-1.817-.288Z"
              transform="translate(-472.787 -409.633)" fill="#5f5d7e"/>
        <path id="Path_337" data-name="Path 337"
              d="M649,571.019l3.245,10.3.078.2c.436.1,9.631,2.212,11.615,2.861h.2L659,570.762l-.147-.392-1.67.107Z"
              transform="translate(-474.267 -412.742)" opacity="0.02"/>
        <path id="Path_338" data-name="Path 338"
              d="M671.806,406.73s-8.5,9.189-13.784,1.607l-5.053,3.447.92,5.284L650.9,457.036s7.811-.231,13.323,1.607a8.549,8.549,0,0,0,8.959-2.068l-.909-35.143,2.068-10.8Z"
              transform="translate(-475.619 -296.302)" opacity="0.1"/>
        <path id="Path_339" data-name="Path 339"
              d="M671.806,404.34s-8.5,9.189-13.784,1.607l-5.053,3.447.92,5.284L650.9,454.646s7.811-.231,13.323,1.607a8.549,8.549,0,0,0,8.959-2.068l-.909-35.143,2.068-10.8Z"
              transform="translate(-475.619 -294.601)" fill="#53526b"/>
        <g id="TESLA" transform="translate(176.538 149.716)">
            <g id="g8">
                <path id="polyline10" d="M614.9,522.36v1.448h-.461v-.963h-1.687v.963h-.464v-1.445l2.613,0"
                      transform="translate(-612.224 -521.414)" fill="#e82127"/>
                <path id="path12" d="M657.527,543.419h-1.783a.658.658,0,0,1-.485-.479h2.749a.661.661,0,0,1-.485.479"
                      transform="translate(-655.26 -542.94)" fill="#e82127"/>
            </g>
            <g id="g30" transform="translate(15.379 0.017)">
                <path id="path32"
                      d="M711.586,543a.666.666,0,0,1-.482.476h-.75l-.037.014v1.892h-.461V543.49l-.043-.014h-.75a.675.675,0,0,1-.482-.476h3.005"
                      transform="translate(-708.58 -543)" fill="#e82127"/>
            </g>
        </g>
        <path id="Path_340" data-name="Path 340" d="M635.416,569.2s0,5.973-1.379,8.5-9.417,1.154-9.417,1.154l1.607-8.5Z"
              transform="translate(-456.919 -411.91)" fill="#d6dbe6"/>
        <path id="Path_341" data-name="Path 341"
              d="M625.565,590.489c1.211,1.154,6.233-1.154,5.887-2.527-.242-.972-1.09-4.451-1.572-6.423l-.335-1.387s-2.942-.92-3.98,0c-.378.335-.643,1.653-.767,3.245C624.585,586.162,624.8,589.756,625.565,590.489Z"
              transform="translate(-456.991 -419.411)" fill="#fdc2cc"/>
        <path id="Path_342" data-name="Path 342"
              d="M666,380.2l8.039,6.2s11.944-.689,8.959-6.432a21.414,21.414,0,0,1-2.307-8.117,16.97,16.97,0,0,1,0-3.141s-11.027-10.1-9.648,1.379a26.032,26.032,0,0,1,.19,2.654C671.4,381.359,666,380.2,666,380.2Z"
              transform="translate(-486.364 -266.33)" fill="#fdc2cc"/>
        <path id="Path_343" data-name="Path 343"
              d="M683.266,370.09a26.031,26.031,0,0,1,.19,2.654A7.528,7.528,0,0,0,687.63,374c2.057,0,3.571-2,4.938-3.331-.153-1.907.343-1.953.343-1.953S681.887,358.6,683.266,370.09Z"
              transform="translate(-498.564 -266.325)" opacity="0.1"/>
        <circle id="Ellipse_21" data-name="Ellipse 21" cx="7.58" cy="7.58" r="7.58"
                transform="translate(181.485 92.052)" fill="#fdc2cc"/>
        <path id="Path_344" data-name="Path 344"
              d="M702.161,394.38s1.263.115,3.79,3.559,8.039,3.905,8.039,3.905,2.068-.92,4.364,9.417,2.985,17.228,1.837,18.376-5.743,2.76-8.05,2.76c0,0-.689,14.471.459,17a3.916,3.916,0,0,1-.231,4.136l-10.1-.689a24.025,24.025,0,0,1-4.136-11.944c-.689-7.58-2.985-29.175-1.837-31.7s6.2-8.959,5.973-9.648A41.486,41.486,0,0,1,702.161,394.38Z"
              transform="translate(-507.699 -287.514)" opacity="0.1"/>
        <path id="Path_345" data-name="Path 345"
              d="M703.334,394.14s1.7-.046,4.226,3.4,8.036,3.905,8.036,3.905,2.068-.92,4.364,9.417,2.985,17.228,1.837,18.376S716.054,432,713.758,432c0,0-.689,14.471.459,17a3.915,3.915,0,0,1-.231,4.136l-10.1-.689a24.025,24.025,0,0,1-4.136-11.944c-.689-7.58-2.991-29.172-1.843-31.687s6.2-8.959,5.973-9.648S703.334,394.14,703.334,394.14Z"
              transform="translate(-508.846 -287.343)" fill="#d6dbe6"/>
        <path id="Path_346" data-name="Path 346"
              d="M625,583.386c1.1-.839,3.173-2.146,5.082-1.857l-.335-1.387s-2.942-.92-3.98,0C625.384,580.476,625.121,581.791,625,583.386Z"
              transform="translate(-457.19 -419.404)" opacity="0.1"/>
        <path id="Path_347" data-name="Path 347"
              d="M641.783,399.16s-5.858,3.79-6.547,5.4-3.216,2.757-3.216,2.757S627.2,409.844,627.2,418.8l-2.527,12.633,11.485,16.08s1.379-16.08,2.068-19.986,1.607-11.249,1.607-11.249,3.447-4.364,2.985-5.512S641.783,399.16,641.783,399.16Z"
              transform="translate(-456.955 -290.915)" opacity="0.1"/>
        <path id="Path_348" data-name="Path 348"
              d="M640.039,398.92s-6.109,3.4-6.8,5.007-3.216,2.757-3.216,2.757-4.823,2.527-4.823,11.485L622.679,430.8l-.459,24.119s4.136-3.905,7.121-2.068,4.823-5.973,4.823-5.973,1.379-16.08,2.068-19.986,1.607-11.249,1.607-11.249,3.447-4.364,2.985-5.512S640.039,398.92,640.039,398.92Z"
              transform="translate(-455.211 -290.744)" fill="#d6dbe6"/>
        <path id="Path_349" data-name="Path 349"
              d="M673,330.889a7.5,7.5,0,0,1,1.338-1.321,4.1,4.1,0,0,1,2.645-1.286,3.958,3.958,0,0,1,1.563.56q3.663,1.93,7.306,3.9a6.794,6.794,0,0,1,2.449,1.869,7.205,7.205,0,0,1,1.056,3.086,7.568,7.568,0,0,1,.1,2.256,2.83,2.83,0,0,1-1,1.895c-.655.476-1.552.479-2.1,1.1a6.139,6.139,0,0,0-.681,1.3c-.225.438-.614.865-1.059.787a1.111,1.111,0,0,1-.776-1.024,6.218,6.218,0,0,1,.084-1.442,3.415,3.415,0,0,0-.525-2.426c-.346-.438-.842-.7-1.177-1.154-.8-1.085-.435-2.884-1.315-3.9a2.085,2.085,0,0,0-2.019-.577,8.632,8.632,0,0,0-2.019.865,15,15,0,0,1-2.766,1.067c-.8.219-1.731.744-2-.323A7.112,7.112,0,0,1,673,330.889Z"
              transform="translate(-490.59 -240.478)" opacity="0.1"/>
        <path id="Path_350" data-name="Path 350"
              d="M673.8,330.1a7.5,7.5,0,0,1,1.338-1.321,4.1,4.1,0,0,1,2.645-1.286,3.957,3.957,0,0,1,1.563.56c2.44,1.286,4.468.069,7.306,3.9.606.819,1.823,1,2.449,1.869a7.2,7.2,0,0,1,1.056,3.086,7.564,7.564,0,0,1,.1,2.256,2.829,2.829,0,0,1-1,1.895c-.655.476-1.552.479-2.1,1.1a6.139,6.139,0,0,0-.681,1.3c-.225.438-.614.865-1.059.787a1.111,1.111,0,0,1-.776-1.024,6.215,6.215,0,0,1,.084-1.442,3.415,3.415,0,0,0-.525-2.426c-.346-.438-.842-.7-1.177-1.154-.8-1.085-.436-2.884-1.315-3.9a2.085,2.085,0,0,0-2.019-.577,8.633,8.633,0,0,0-2.019.865,15,15,0,0,1-2.766,1.067c-.8.219-1.731.744-2-.323A7.1,7.1,0,0,1,673.8,330.1Z"
              transform="translate(-491.156 -239.916)" fill="#865a61"/>
        <path id="Path_351" data-name="Path 351"
              d="M737.619,458.09s3.063,7.811.764,11.027l-5.053-1.154s4.595,1.379,3.905-1.379S737.619,458.09,737.619,458.09Z"
              transform="translate(-534.274 -332.848)" opacity="0.1"/>
        <path id="Path_352" data-name="Path 352" d="M733.03,522.73s-6.663.459-8.5-.92a17.594,17.594,0,0,0,8.292,3.447Z"
              transform="translate(-528.012 -378.189)" opacity="0.1"/>
        <path id="Path_353" data-name="Path 353"
              d="M646.529,474s-3.447,10.568-3.216,12.175.689,19.3.689,19.3l.689-.231-.231-19.3Z"
              transform="translate(-470.212 -344.169)" opacity="0.1"/>
        <path id="Path_354" data-name="Path 354"
              d="M357.351,188.578l-78.742-63.455a4.926,4.926,0,0,0-3.49-1.442h-3.346a42.688,42.688,0,1,0-7.393,7.393v3.343a4.926,4.926,0,0,0,1.442,3.49l78.742,63.455a4.9,4.9,0,0,0,6.963,0l5.8-5.8A4.952,4.952,0,0,0,357.351,188.578Zm-119.259-64.9a10.889,10.889,0,1,1,0,.006Z"
              transform="translate(-151.522 -45.831)" fill="url(#linear-gradient-3)"/>
        <path id="Path_355" data-name="Path 355"
              d="M359.351,186.578l-78.742-63.455a4.927,4.927,0,0,0-3.49-1.442h-3.346a42.688,42.688,0,1,0-7.393,7.393v3.343a4.927,4.927,0,0,0,1.442,3.49l78.742,63.455a4.9,4.9,0,0,0,6.963,0l5.8-5.8a4.952,4.952,0,0,0,.02-6.986Zm-119.259-64.9a10.889,10.889,0,1,1,0,.006Z"
              transform="translate(-152.945 -44.407)" fill="#56c596"/>
        <path id="Path_356" data-name="Path 356"
              d="M713.755,478.694s-11.494-13.181-9.879-4.136c1.154,6.432,5.512,9.879,7.58,10.568S713.755,478.694,713.755,478.694Z"
              transform="translate(-513.205 -342.309)" fill="#fdc2cc"/>
        <path id="Path_357" data-name="Path 357"
              d="M729.37,454.51s.231,8.5,1.379,9.648-.689,2.527-.689,2.527l-4.595-1.154s1.154,7.58-3.675,6.663c0,0,3.216,2.985,6.432,3.447s2.985-.689,2.985-.689l4.823-5.743Z"
              transform="translate(-526.062 -330.3)" fill="#d6dbe6"/>
        <path id="Path_358" data-name="Path 358" d="M702.876,491.277l4.661-1.024-.623-2.149-2.884-1.154-3.75,1.731Z"
              transform="translate(-498.296 -346.502)" fill="#d6dbe6"/>
        <g id="Group_24" data-name="Group 24" transform="translate(-45.907 -189.285)">
            <path id="Path_362" data-name="Path 362"
                  d="M417.045,375.115s-5.445,2.53-10.053,4.207c-2.859-6.455-6.979-6.213-6.979-6.213l-2.5,1.72.45,2.579-.123,4.217-.655,2.211.94.17.531.1.08-.072a5.455,5.455,0,0,0-.159,1.608l23.623-3.685A12.47,12.47,0,0,0,417.045,375.115Z"
                  transform="translate(-280.97 -151)" fill="#e6e6e6"/>
            <path id="Path_367" data-name="Path 367"
                  d="M396.783,383.78l1.146-.368c.123-.235-.1-.084.005-.313,2.9-6.187.22-9.984.22-9.984l-2.073,1.428-.014-.036s-.368-.819-.942-.2a14.534,14.534,0,0,1-.2,9.826l2.334,1.065.9-1.065.02-.1-1.612-.147Z"
                  transform="translate(-279.112 -151.005)" fill="#ccc"/>
            <path id="Path_368" data-name="Path 368"
                  d="M429.382,435.417c-9.212-2.047-17.789,2.19-17.789,2.19l-.023-.021-3.416-3.05-13.347-21.781,3.255.02c9.048-5.4,21.781-4.667,21.781-4.667C425.329,414.332,429.382,435.417,429.382,435.417Z"
                  transform="translate(-279.019 -179.654)" fill="#3f3d56"/>
            <path id="Path_369" data-name="Path 369"
                  d="M411.57,458.831l-3.416-3.05L394.807,434l3.255.02S411.035,451.154,411.57,458.831Z"
                  transform="translate(-279.019 -200.898)" opacity="0.1"/>
            <ellipse id="Ellipse_23" data-name="Ellipse 23" cx="5.281" cy="3.357" rx="5.281" ry="3.357"
                     transform="translate(127.032 236.067) rotate(-17.052)" fill="#56c596"/>
        </g>
        <g id="Group_25" data-name="Group 25" transform="translate(-45.907 -121.503)">
            <path id="Path_362-2" data-name="Path 362"
                  d="M417.045,375.115s-5.445,2.53-10.053,4.207c-2.859-6.455-6.979-6.213-6.979-6.213l-2.5,1.72.45,2.579-.123,4.217-.655,2.211.94.17.531.1.08-.072a5.455,5.455,0,0,0-.159,1.608l23.623-3.685A12.47,12.47,0,0,0,417.045,375.115Z"
                  transform="translate(-280.97 -151)" fill="#e6e6e6"/>
            <path id="Path_367-2" data-name="Path 367"
                  d="M396.783,383.78l1.146-.368c.123-.235-.1-.084.005-.313,2.9-6.187.22-9.984.22-9.984l-2.073,1.428-.014-.036s-.368-.819-.942-.2a14.534,14.534,0,0,1-.2,9.826l2.334,1.065.9-1.065.02-.1-1.612-.147Z"
                  transform="translate(-279.112 -151.005)" fill="#ccc"/>
            <path id="Path_368-2" data-name="Path 368"
                  d="M429.382,435.417c-9.212-2.047-17.789,2.19-17.789,2.19l-.023-.021-3.416-3.05-13.347-21.781,3.255.02c9.048-5.4,21.781-4.667,21.781-4.667C425.329,414.332,429.382,435.417,429.382,435.417Z"
                  transform="translate(-279.019 -179.654)" fill="#3f3d56"/>
            <path id="Path_369-2" data-name="Path 369"
                  d="M411.57,458.831l-3.416-3.05L394.807,434l3.255.02S411.035,451.154,411.57,458.831Z"
                  transform="translate(-279.019 -200.898)" opacity="0.1"/>
            <ellipse id="Ellipse_23-2" data-name="Ellipse 23" cx="5.281" cy="3.357" rx="5.281" ry="3.357"
                     transform="translate(127.032 236.067) rotate(-17.052)" fill="#56c596"/>
        </g>
        <g id="Group_26" data-name="Group 26" transform="translate(-45.907 -50.26)">
            <path id="Path_362-3" data-name="Path 362"
                  d="M417.045,375.115s-5.445,2.53-10.053,4.207c-2.859-6.455-6.979-6.213-6.979-6.213l-2.5,1.72.45,2.579-.123,4.217-.655,2.211.94.17.531.1.08-.072a5.455,5.455,0,0,0-.159,1.608l23.623-3.685A12.47,12.47,0,0,0,417.045,375.115Z"
                  transform="translate(-280.97 -151)" fill="#e6e6e6"/>
            <path id="Path_367-3" data-name="Path 367"
                  d="M396.783,383.78l1.146-.368c.123-.235-.1-.084.005-.313,2.9-6.187.22-9.984.22-9.984l-2.073,1.428-.014-.036s-.368-.819-.942-.2a14.534,14.534,0,0,1-.2,9.826l2.334,1.065.9-1.065.02-.1-1.612-.147Z"
                  transform="translate(-279.112 -151.005)" fill="#ccc"/>
            <path id="Path_368-3" data-name="Path 368"
                  d="M429.382,435.417c-9.212-2.047-17.789,2.19-17.789,2.19l-.023-.021-3.416-3.05-13.347-21.781,3.255.02c9.048-5.4,21.781-4.667,21.781-4.667C425.329,414.332,429.382,435.417,429.382,435.417Z"
                  transform="translate(-279.019 -179.654)" fill="#3f3d56"/>
            <path id="Path_369-3" data-name="Path 369"
                  d="M411.57,458.831l-3.416-3.05L394.807,434l3.255.02S411.035,451.154,411.57,458.831Z"
                  transform="translate(-279.019 -200.898)" opacity="0.1"/>
            <ellipse id="Ellipse_23-3" data-name="Ellipse 23" cx="5.281" cy="3.357" rx="5.281" ry="3.357"
                     transform="translate(127.032 236.067) rotate(-17.052)" fill="#56c596"/>
        </g>
    </g>
</svg>
