<svg xmlns="http://www.w3.org/2000/svg" xmlns:xlink="http://www.w3.org/1999/xlink" width="375" height="258"
     viewBox="0 0 375 258">
    <defs>
        <clipPath id="a">
            <rect width="375" height="258" transform="translate(0 148)" fill="#fff"/>
        </clipPath>
        <clipPath id="b">
            <path d="M40.866.335a2.228,2.228,0,0,1,.9.947,2.066,2.066,0,0,1,.32,1.225,12.626,12.626,0,0,0,1.541,6.63,10.472,10.472,0,0,0,4.357,4.357c1.878,1,3.978,1.539,7.692,1.539h77.051c3.713,0,5.814-.535,7.692-1.539a10.472,10.472,0,0,0,4.357-4.357,12.64,12.64,0,0,0,1.539-6.629,2.178,2.178,0,0,1,.3-1.225,2.168,2.168,0,0,1,.841-.948A2.546,2.546,0,0,1,148.824,0H163.5c8.488,0,11.566.884,14.669,2.543a17.3,17.3,0,0,1,7.2,7.2c1.66,3.1,2.543,6.181,2.543,14.669V382.476c0,8.488-.884,11.566-2.543,14.669a17.3,17.3,0,0,1-7.2,7.2c-3.1,1.66-6.181,2.543-14.669,2.543H24.41c-8.488,0-11.566-.884-14.669-2.543a17.3,17.3,0,0,1-7.2-7.2C.884,394.042,0,390.964,0,382.476V24.41C0,15.922.884,12.844,2.543,9.741a17.3,17.3,0,0,1,7.2-7.2C12.844.884,15.922,0,24.41,0H39.4A2.9,2.9,0,0,1,40.866.335Z"
                  transform="translate(14.031 12.527)" fill="#cde0c9"/>
        </clipPath>
        <linearGradient id="c" x1="0.5" y1="0.225" x2="0.5" y2="0.385" gradientUnits="objectBoundingBox">
            <stop offset="0" stop-color="#fff" stop-opacity="0.49"/>
            <stop offset="1" stop-color="#fff"/>
        </linearGradient>
        <filter id="d" x="9" y="28.502" width="357.832" height="144.966" filterUnits="userSpaceOnUse">
            <feOffset dy="11"/>
            <feGaussianBlur stdDeviation="14" result="e"/>
            <feFlood flood-color="#56c596" flood-opacity="0.149"/>
            <feComposite operator="in" in2="e"/>
            <feComposite in="SourceGraphic"/>
        </filter>
    </defs>
    <g transform="translate(0 -148)" clip-path="url(#a)">
        <g transform="translate(80.642 148.206)">
            <path d="M42.114,431.941c-14.113,0-19.392-1.443-24.7-4.283A29.052,29.052,0,0,1,5.286,415.535C2.445,410.224,1,404.944,1,390.829V159.8a.751.751,0,0,1-1-.708V129.533a.751.751,0,0,1,1-.709v-8.6a.754.754,0,0,1-1-.709V89.946a.754.754,0,0,1,1-.709V74.62a.754.754,0,0,1-1-.709V58.878a.751.751,0,0,1,1-.708V41.112C1,27,2.445,21.717,5.286,16.406A29.052,29.052,0,0,1,17.409,4.283C22.721,1.443,28,0,42.114,0H173.355c14.114,0,19.393,1.443,24.706,4.283a29.065,29.065,0,0,1,12.122,12.123c2.841,5.312,4.284,10.591,4.284,24.706V99.76a.761.761,0,0,1,.25-.042.753.753,0,0,1,.752.752v48.105a.753.753,0,0,1-.752.751.739.739,0,0,1-.25-.043V390.829c0,14.115-1.443,19.394-4.284,24.706a29.065,29.065,0,0,1-12.122,12.123c-5.313,2.84-10.592,4.283-24.706,4.283ZM27.447,2.415a29.48,29.48,0,0,0-9.33,3.194A27.585,27.585,0,0,0,6.611,17.115a29.494,29.494,0,0,0-3.194,9.33,86.79,86.79,0,0,0-.912,14.666V390.829a86.79,86.79,0,0,0,.912,14.666,29.494,29.494,0,0,0,3.194,9.33,27.585,27.585,0,0,0,11.506,11.507,29.48,29.48,0,0,0,9.33,3.194,86.805,86.805,0,0,0,14.666.912H173.355a86.791,86.791,0,0,0,14.666-.912,29.494,29.494,0,0,0,9.33-3.194,27.575,27.575,0,0,0,11.506-11.507,29.5,29.5,0,0,0,3.2-9.33,86.89,86.89,0,0,0,.911-14.666V41.112a86.891,86.891,0,0,0-.911-14.666,29.5,29.5,0,0,0-3.2-9.33A27.575,27.575,0,0,0,197.352,5.609a29.494,29.494,0,0,0-9.33-3.194A86.79,86.79,0,0,0,173.355,1.5H42.114A86.8,86.8,0,0,0,27.447,2.415Zm13.819,426.52c-12.79,0-17.574-1.308-22.389-3.882A26.348,26.348,0,0,1,7.89,414.067c-2.574-4.815-3.882-9.6-3.882-22.389V40.264c0-12.79,1.308-17.574,3.882-22.389A26.348,26.348,0,0,1,18.877,6.889c4.815-2.575,9.6-3.882,22.389-3.882H174.2c12.79,0,17.574,1.307,22.389,3.882a26.348,26.348,0,0,1,10.986,10.986c2.575,4.815,3.882,9.6,3.882,22.389V391.677c0,12.789-1.307,17.574-3.882,22.389a26.348,26.348,0,0,1-10.986,10.986c-4.815,2.574-9.6,3.882-22.389,3.882ZM28.007,5.332a26.616,26.616,0,0,0-8.421,2.883,24.857,24.857,0,0,0-10.37,10.37A26.594,26.594,0,0,0,6.334,27a78.638,78.638,0,0,0-.823,13.26V391.677a78.614,78.614,0,0,0,.823,13.258,26.6,26.6,0,0,0,2.882,8.422,24.872,24.872,0,0,0,10.37,10.37,26.59,26.59,0,0,0,8.421,2.881,78.613,78.613,0,0,0,13.259.823H174.2a78.613,78.613,0,0,0,13.259-.823,26.59,26.59,0,0,0,8.421-2.881,24.867,24.867,0,0,0,10.37-10.37,26.605,26.605,0,0,0,2.882-8.422,78.616,78.616,0,0,0,.823-13.258V40.264A78.64,78.64,0,0,0,209.135,27a26.587,26.587,0,0,0-2.882-8.42,24.852,24.852,0,0,0-10.37-10.37,26.616,26.616,0,0,0-8.421-2.883A78.637,78.637,0,0,0,174.2,4.51H41.266A78.644,78.644,0,0,0,28.007,5.332Zm99.771,12.207a3.006,3.006,0,1,1,3.006,3.006A3.006,3.006,0,0,1,127.778,17.538Zm-31.318,1.5a1.754,1.754,0,1,1,0-3.507h22.549a1.754,1.754,0,1,1,0,3.507Z"
                  fill="#cde0c9"/>
            <path d="M40.866.335a2.228,2.228,0,0,1,.9.947,2.066,2.066,0,0,1,.32,1.225,12.626,12.626,0,0,0,1.541,6.63,10.472,10.472,0,0,0,4.357,4.357c1.878,1,3.978,1.539,7.692,1.539h77.051c3.713,0,5.814-.535,7.692-1.539a10.472,10.472,0,0,0,4.357-4.357,12.64,12.64,0,0,0,1.539-6.629,2.178,2.178,0,0,1,.3-1.225,2.168,2.168,0,0,1,.841-.948A2.546,2.546,0,0,1,148.824,0H163.5c8.488,0,11.566.884,14.669,2.543a17.3,17.3,0,0,1,7.2,7.2c1.66,3.1,2.543,6.181,2.543,14.669V382.476c0,8.488-.884,11.566-2.543,14.669a17.3,17.3,0,0,1-7.2,7.2c-3.1,1.66-6.181,2.543-14.669,2.543H24.41c-8.488,0-11.566-.884-14.669-2.543a17.3,17.3,0,0,1-7.2-7.2C.884,394.042,0,390.964,0,382.476V24.41C0,15.922.884,12.844,2.543,9.741a17.3,17.3,0,0,1,7.2-7.2C12.844.884,15.922,0,24.41,0H39.4A2.9,2.9,0,0,1,40.866.335Z"
                  transform="translate(14.031 12.527)" fill="#cde0c9"/>
        </g>
        <rect width="375.753" height="664.091" transform="translate(-0.5 148.206)" fill="url(#c)"/>
        <g transform="translate(64.264 207.502)">
            <g transform="matrix(1, 0, 0, 1, -64.26, -59.5)" filter="url(#d)">
                <rect width="273.832" height="60.966" rx="17.538" transform="translate(51 59.5)" fill="#fff"/>
            </g>
            <text transform="translate(80.175 9.703)" fill="#329d9c" font-size="10.857"
                  font-family="Montserrat-Bold, Montserrat" font-weight="700">
                <tspan x="0" y="11">Library</tspan>
            </text>
            <text transform="translate(80.175 24.703)" fill="#205072" font-size="8.352"
                  font-family="Montserrat-Medium, Montserrat" font-weight="500">
                <tspan x="0" y="8">Your return date is coming soon</tspan>
            </text>
            <g transform="translate(-6.264 14.498)">
                <path d="M129.273,7.113a22.236,22.236,0,0,0-29.608,0,21.613,21.613,0,0,1,3.073-2.959,20.032,20.032,0,0,1,3.551-2.238A18.809,18.809,0,0,1,110.228.5a18.426,18.426,0,0,1,8.48,0,18.812,18.812,0,0,1,3.94,1.416A20.039,20.039,0,0,1,126.2,4.153a21.629,21.629,0,0,1,3.073,2.959Z"
                      transform="translate(-77.766 -0.004)" fill="#56c596"/>
                <path d="M27.528,70.244l-.779-1.772h1.557l-.779,1.772Z" transform="translate(9.175 -47.896)"
                      fill="#205072"/>
                <path d="M3.75,5.046H1.99L0,.516A1.38,1.38,0,0,0,.6.653,1.271,1.271,0,0,0,1.743,0,1.272,1.272,0,0,0,2.87.653,1.272,1.272,0,0,0,4,0,1.272,1.272,0,0,0,5.138.653a1.38,1.38,0,0,0,.6-.137L3.75,5.045Z"
                      transform="translate(33.833 15.299)" fill="#ffcf5c"/>
                <path d="M0,10.093V.567H.006C.08.311.9.093,2.033,0V10.093a.955.955,0,0,1-1.016.879A.955.955,0,0,1,0,10.093Z"
                      transform="translate(33.419 4.75)" fill="#56c596"/>
                <path d="M0,10.1V.032C.32.011.662,0,1.016,0s.7.011,1.016.032V10.1a.973.973,0,0,1-1.016.924A.973.973,0,0,1,0,10.1Z"
                      transform="translate(35.687 4.701)" fill="#7be495"/>
                <path d="M0,10.093V0C1.137.093,1.953.31,2.027.567h.006v9.525a.955.955,0,0,1-1.016.879A.955.955,0,0,1,0,10.093Z"
                      transform="translate(37.954 4.75)" fill="#56c596"/>
                <path d="M122.727,385.407c7.352,0,21.609,2.172,28.4,14.722-8.876-7-13.532-11.4-24.839-12.584a19.726,19.726,0,0,0,1.026,6.188C125.6,392.165,124.38,391.2,122.727,385.407Z"
                      transform="translate(-115.522 -370.657)" fill="#2c6975"/>
                <path d="M153.664,402.294c8.831.449,16.394,3.425,25.976,13.421-8.876-7-13.532-11.4-24.839-12.584a19.725,19.725,0,0,0,1.026,6.188C154.57,406.862,153.536,403.857,153.664,402.294Z"
                      transform="translate(-144.031 -386.242)" fill="#cde0c9"/>
                <path d="M229.336,261.68a38.052,38.052,0,0,0,.052,8.368c.145.75-.139,1.016,1.337,1.428,14.545,4.12,18.821,13.464,18.821,13.464S245.688,270.282,229.336,261.68Z"
                      transform="translate(-213.604 -256.465)" fill="#2c6975"/>
                <path d="M231.783,261.68a24.571,24.571,0,0,0,1.837,6.9c.471,1.2.98,1.222.986,1.225a28.9,28.9,0,0,1,17.386,15.14S248.135,270.282,231.783,261.68Z"
                      transform="translate(-216.051 -256.465)" fill="#e0ecde"/>
                <path d="M88.534,498.568c15.186-3.017,22.815.371,31.221,4.224C109.324,492.488,96.61,494.113,88.534,498.568Z"
                      transform="translate(-84.002 -471.898)" fill="#2c6975"/>
                <path d="M88.534,498.568c15.045-4.966,24.369.046,31.221,4.224C109.324,492.488,96.61,494.113,88.534,498.568Z"
                      transform="translate(-84.002 -471.898)" fill="#cde0c9"/>
                <path d="M30.577,543.805c7.3-2.061,28.072-2.627,35.6-.261a10.325,10.325,0,0,0,1.2.167c-11.664-7.943-31.116-6.05-33.243-4.6A8.707,8.707,0,0,0,30.577,543.805Z"
                      transform="translate(-30.577 -511.316)" fill="#cde0c9"/>
                <path d="M30.577,570.021c7.3-2.061,28.072-2.627,35.6-.261a10.352,10.352,0,0,0,1.2.167c-12.674-6.185-35.154-2.971-35.762-2.094A6.409,6.409,0,0,0,30.577,570.021Z"
                      transform="translate(-30.577 -537.532)" fill="#2c6975"/>
                <g transform="translate(37.778 14.75)">
                    <path d="M151.132,385.407c-7.352,0-21.61,2.172-28.4,14.722,8.876-7,13.532-11.4,24.839-12.584a19.726,19.726,0,0,1-1.026,6.188C148.254,392.165,149.479,391.2,151.132,385.407Z"
                          transform="translate(-122.727 -385.407)" fill="#2c6975"/>
                    <path d="M184.561,402.294c-8.831.449-16.394,3.425-25.976,13.421,8.876-7,13.532-11.4,24.839-12.584a19.724,19.724,0,0,1-1.026,6.188C183.655,406.862,184.689,403.857,184.561,402.294Z"
                          transform="translate(-158.585 -400.993)" fill="#e0ecde"/>
                </g>
                <g transform="translate(37.446 5.215)">
                    <path d="M249.339,261.68a38.049,38.049,0,0,1-.052,8.368c-.145.75.139,1.016-1.337,1.428-14.545,4.12-18.821,13.464-18.821,13.464S232.987,270.282,249.339,261.68Z"
                          transform="translate(-229.129 -261.68)" fill="#2c6975"/>
                    <path d="M251.993,261.68a24.573,24.573,0,0,1-1.837,6.9c-.471,1.2-.974,1.226-.986,1.225a28.9,28.9,0,0,0-17.386,15.14S235.641,270.282,251.993,261.68Z"
                          transform="translate(-231.783 -261.68)" fill="#e0ecde"/>
                </g>
                <g transform="translate(37.635 23.204)">
                    <path d="M119.755,498.568c-15.186-3.017-22.815.371-31.221,4.224C98.964,492.488,111.679,494.113,119.755,498.568Z"
                          transform="translate(-88.534 -495.102)" fill="#2c6975"/>
                    <path d="M119.755,498.568c-15.045-4.966-24.369.046-31.221,4.224C98.964,492.488,111.679,494.113,119.755,498.568Z"
                          transform="translate(-88.534 -495.102)" fill="#e0ecde"/>
                </g>
                <g transform="translate(36.592 26.495)">
                    <path d="M67.373,543.806c-7.3-2.061-28.072-2.627-35.6-.261a10.325,10.325,0,0,1-1.2.167c11.664-7.943,31.116-6.049,33.243-4.6A8.707,8.707,0,0,1,67.373,543.806Z"
                          transform="translate(-30.577 -537.812)" fill="#e0ecde"/>
                    <path d="M67.373,570.021c-7.3-2.061-28.072-2.627-35.6-.261a10.378,10.378,0,0,1-1.2.167c12.674-6.185,35.154-2.971,35.762-2.094A6.4,6.4,0,0,1,67.373,570.021Z"
                          transform="translate(-30.577 -564.027)" fill="#2c6975"/>
                </g>
            </g>
        </g>
    </g>
</svg>